<svg id="svg" version="1.1" xmlns="http://www.w3.org/2000/svg" xmlns:xlink="http://www.w3.org/1999/xlink" width="400" height="400" viewBox="0, 0, 400,400"><g id="svgg"><path id="path0" d="M174.805 102.627 C 171.405 103.463,165.811 106.717,166.170 107.650 C 166.284 107.949,166.184 108.152,165.946 108.101 C 165.018 107.901,163.871 110.670,163.869 113.114 C 163.866 116.513,164.948 117.964,169.984 121.313 C 174.456 124.288,179.947 129.498,182.223 132.925 C 183.032 134.143,183.827 135.058,183.990 134.957 C 184.153 134.856,184.272 134.992,184.253 135.258 C 184.194 136.115,188.910 145.333,189.250 145.025 C 189.431 144.861,189.454 144.943,189.301 145.208 C 189.149 145.473,189.455 147.055,189.981 148.724 C 191.332 153.009,191.399 153.741,190.430 153.585 C 189.401 153.419,183.717 151.737,180.273 150.580 C 132.828 134.640,95.397 154.013,84.031 200.391 C 78.318 223.704,83.263 256.364,96.529 282.942 C 100.856 291.610,107.589 302.528,108.326 302.072 C 108.549 301.934,108.591 302.031,108.425 302.300 C 108.052 302.905,110.066 305.570,110.633 305.220 C 110.893 305.060,110.946 305.139,110.769 305.425 C 109.937 306.771,123.446 321.640,131.286 328.009 C 150.379 343.520,167.026 347.177,186.914 340.230 C 195.900 337.091,202.209 337.130,211.775 340.386 C 229.243 346.330,243.808 344.218,259.766 333.427 C 267.090 328.473,272.851 323.678,272.384 322.923 C 272.253 322.710,272.328 322.649,272.552 322.787 C 273.058 323.100,273.928 322.116,273.532 321.679 C 273.372 321.503,273.431 321.467,273.662 321.598 C 274.478 322.062,283.436 312.412,282.938 311.605 C 282.802 311.387,282.881 311.325,283.113 311.468 C 283.630 311.787,285.113 309.763,284.869 309.070 C 284.772 308.795,284.929 308.619,285.217 308.679 C 285.506 308.740,285.698 308.569,285.645 308.301 C 285.591 308.032,285.748 307.856,285.994 307.910 C 286.676 308.059,295.098 295.419,298.707 288.831 C 318.685 252.363,321.932 210.438,307.055 181.055 C 304.238 175.489,300.397 169.463,299.081 168.541 C 298.620 168.218,298.283 167.825,298.332 167.668 C 298.487 167.176,293.711 162.087,293.320 162.329 C 293.116 162.455,292.998 162.344,293.057 162.081 C 293.210 161.401,286.996 156.405,283.145 154.113 C 267.048 144.533,250.957 142.950,227.182 148.609 C 222.708 149.673,219.377 150.633,211.364 153.164 C 208.699 154.006,206.463 154.640,206.395 154.572 C 206.327 154.504,205.908 152.209,205.463 149.471 C 205.018 146.734,204.497 144.081,204.305 143.576 C 204.113 143.071,204.058 142.557,204.182 142.432 C 204.306 142.308,204.230 141.982,204.013 141.709 C 203.485 141.044,202.824 138.854,202.540 136.828 C 201.516 129.513,188.514 106.266,186.235 107.675 C 186.005 107.817,185.924 107.760,186.055 107.548 C 186.403 106.985,182.860 103.653,181.165 102.948 C 179.788 102.375,176.502 102.209,174.805 102.627 M141.797 167.899 C 146.341 171.186,144.129 176.468,135.156 183.759 C 125.466 191.633,121.064 196.717,117.568 204.076 C 114.349 210.851,110.309 213.247,107.383 210.115 C 104.254 206.765,107.887 193.204,114.645 183.008 C 121.820 172.183,136.459 164.037,141.797 167.899 " stroke="none" fill="#b83020" fill-rule="evenodd"></path><path id="path1" d="M0.000 200.000 L 0.000 400.000 200.000 400.000 L 400.000 400.000 400.000 200.000 L 400.000 0.000 200.000 0.000 L 0.000 0.000 0.000 200.000 M309.166 53.290 C 312.098 54.514,312.275 56.822,310.306 68.164 C 305.382 96.534,291.314 119.963,272.664 130.855 C 254.803 141.286,232.334 144.510,214.258 139.235 L 211.133 138.323 208.066 141.371 L 205.000 144.420 205.657 148.675 C 206.614 154.870,205.859 154.496,212.891 152.258 C 235.533 145.049,252.493 143.198,265.641 146.501 C 327.184 161.958,334.609 254.828,279.272 316.992 C 257.654 341.278,235.483 348.863,210.742 340.440 C 202.086 337.492,196.570 337.496,187.500 340.456 C 163.985 348.131,145.878 342.948,124.658 322.466 C 80.767 280.101,68.036 209.590,97.188 170.313 C 116.521 144.265,143.745 138.429,184.671 151.558 C 188.020 152.632,190.799 153.468,190.848 153.416 C 191.100 153.144,188.810 146.208,187.421 143.035 C 183.133 133.243,178.282 127.434,169.141 121.146 C 163.622 117.349,162.200 114.182,164.067 109.843 C 166.483 104.226,176.168 100.284,181.549 102.727 C 187.495 105.425,197.866 121.031,202.131 133.697 L 203.025 136.350 204.243 134.962 L 205.462 133.574 205.219 128.408 C 204.303 108.951,213.523 86.775,227.761 74.192 C 242.523 61.145,258.050 55.514,284.180 53.733 C 289.121 53.396,293.955 53.064,294.922 52.996 C 300.360 52.610,307.912 52.766,309.166 53.290 " stroke="none" fill="#fbfbfb" fill-rule="evenodd"></path><path id="path2" d="M301.172 52.988 C 273.059 53.846,258.649 56.384,245.066 62.873 C 220.740 74.492,205.815 98.109,205.622 125.285 L 205.563 133.579 204.305 135.011 C 203.314 136.140,202.972 136.328,202.694 135.898 C 202.467 135.548,202.419 135.913,202.559 136.914 C 202.800 138.640,203.468 140.995,203.888 141.602 C 204.037 141.816,204.180 142.408,204.207 142.915 C 204.291 144.528,204.644 144.361,207.818 141.205 L 210.925 138.117 212.591 138.604 C 229.618 143.589,249.221 141.901,266.211 133.986 C 289.341 123.210,304.759 99.654,310.373 66.511 C 312.560 53.604,311.918 52.660,301.172 52.988 M177.441 102.222 C 177.817 102.321,178.433 102.321,178.809 102.222 C 179.185 102.124,178.877 102.044,178.125 102.044 C 177.373 102.044,177.065 102.124,177.441 102.222 M184.693 105.590 C 185.602 106.516,186.254 107.366,186.142 107.478 C 186.029 107.590,186.210 107.682,186.542 107.682 C 186.915 107.682,186.434 106.958,185.287 105.794 C 184.265 104.756,183.341 103.906,183.234 103.906 C 183.128 103.906,183.784 104.664,184.693 105.590 M176.953 127.148 C 178.337 128.545,179.558 129.688,179.665 129.688 C 179.772 129.688,178.728 128.545,177.344 127.148 C 175.960 125.752,174.739 124.609,174.632 124.609 C 174.525 124.609,175.569 125.752,176.953 127.148 M188.186 143.291 C 188.042 143.843,188.111 144.050,188.384 143.882 C 188.661 143.711,188.707 143.878,188.520 144.370 C 188.315 144.908,188.354 144.999,188.661 144.695 C 188.932 144.426,188.963 143.941,188.747 143.357 L 188.408 142.440 188.186 143.291 M141.313 145.198 C 141.799 145.292,142.502 145.288,142.876 145.190 C 143.249 145.092,142.852 145.016,141.992 145.020 C 141.133 145.025,140.827 145.105,141.313 145.198 M251.079 145.198 C 251.565 145.292,252.268 145.288,252.641 145.190 C 253.015 145.092,252.617 145.016,251.758 145.020 C 250.898 145.025,250.593 145.105,251.079 145.198 M292.714 161.262 C 293.070 161.656,293.273 162.095,293.165 162.239 C 293.057 162.382,293.088 162.411,293.233 162.301 C 293.378 162.192,293.949 162.497,294.502 162.979 C 295.055 163.462,294.813 163.112,293.964 162.202 C 293.114 161.292,292.340 160.547,292.243 160.547 C 292.146 160.547,292.358 160.869,292.714 161.262 M101.932 164.746 L 100.586 166.211 102.051 164.865 C 103.414 163.612,103.695 163.281,103.397 163.281 C 103.332 163.281,102.672 163.940,101.932 164.746 M81.747 215.625 C 81.747 216.592,81.823 216.987,81.916 216.504 C 82.009 216.021,82.009 215.229,81.916 214.746 C 81.823 214.263,81.747 214.658,81.747 215.625 M81.731 228.906 C 81.731 229.658,81.812 229.966,81.910 229.590 C 82.008 229.214,82.008 228.599,81.910 228.223 C 81.812 227.847,81.731 228.154,81.731 228.906 M316.106 230.078 C 316.106 230.830,316.187 231.138,316.285 230.762 C 316.383 230.386,316.383 229.771,316.285 229.395 C 316.187 229.019,316.106 229.326,316.106 230.078 M82.122 233.984 C 82.122 234.736,82.202 235.044,82.301 234.668 C 82.399 234.292,82.399 233.677,82.301 233.301 C 82.202 232.925,82.122 233.232,82.122 233.984 M285.635 308.272 C 285.694 308.556,285.522 308.745,285.254 308.691 C 284.985 308.638,284.766 308.770,284.766 308.984 C 284.766 309.550,285.378 309.464,285.909 308.824 C 286.229 308.437,286.241 308.195,285.947 308.014 C 285.716 307.871,285.576 307.987,285.635 308.272 M280.249 315.332 L 279.102 316.602 280.371 315.454 C 281.069 314.823,281.641 314.252,281.641 314.185 C 281.641 313.883,281.318 314.149,280.249 315.332 M274.813 321.085 C 274.429 321.509,273.918 321.745,273.678 321.608 C 273.438 321.471,273.372 321.503,273.532 321.679 C 273.939 322.129,273.053 323.092,272.514 322.785 C 272.270 322.645,272.204 322.678,272.367 322.858 C 272.530 323.037,272.270 323.637,271.790 324.190 C 271.309 324.743,272.011 324.146,273.349 322.864 C 274.687 321.581,275.781 320.483,275.781 320.422 C 275.781 320.150,275.459 320.371,274.813 321.085 M167.480 344.026 C 167.964 344.119,168.755 344.119,169.238 344.026 C 169.722 343.933,169.326 343.856,168.359 343.856 C 167.393 343.856,166.997 343.933,167.480 344.026 M228.613 344.030 C 229.204 344.119,230.171 344.119,230.762 344.030 C 231.353 343.940,230.869 343.867,229.688 343.867 C 228.506 343.867,228.022 343.940,228.613 344.030 " stroke="none" fill="#629b34" fill-rule="evenodd"></path><path id="path3" d="M104.478 161.816 L 102.539 163.867 104.590 161.929 C 106.495 160.128,106.820 159.766,106.528 159.766 C 106.466 159.766,105.544 160.688,104.478 161.816 M135.742 167.183 C 122.998 169.955,110.883 184.066,107.019 200.637 C 104.059 213.335,111.947 215.907,117.568 204.076 C 121.064 196.717,125.466 191.633,135.156 183.759 C 140.940 179.059,143.425 176.017,143.899 173.056 C 144.575 168.826,140.773 166.089,135.742 167.183 M81.399 222.461 C 81.400 225.039,81.463 226.043,81.540 224.692 C 81.616 223.341,81.615 221.231,81.538 220.004 C 81.461 218.777,81.398 219.883,81.399 222.461 M316.497 227.344 C 316.497 228.096,316.577 228.403,316.676 228.027 C 316.774 227.651,316.774 227.036,316.676 226.660 C 316.577 226.284,316.497 226.592,316.497 227.344 M274.198 322.168 L 272.852 323.633 274.316 322.287 C 275.122 321.546,275.781 320.887,275.781 320.822 C 275.781 320.524,275.451 320.805,274.198 322.168 " stroke="none" fill="#eea490" fill-rule="evenodd"></path><path id="path4" d="M299.902 53.020 C 300.815 53.103,302.310 53.103,303.223 53.020 C 304.136 52.938,303.389 52.871,301.563 52.871 C 299.736 52.871,298.989 52.938,299.902 53.020 M291.504 53.394 C 291.880 53.493,292.495 53.493,292.871 53.394 C 293.247 53.296,292.939 53.216,292.188 53.216 C 291.436 53.216,291.128 53.296,291.504 53.394 M285.454 53.792 C 285.940 53.885,286.643 53.882,287.016 53.784 C 287.390 53.686,286.992 53.610,286.133 53.614 C 285.273 53.618,284.968 53.698,285.454 53.792 M311.435 58.203 C 311.435 59.170,311.511 59.565,311.604 59.082 C 311.697 58.599,311.697 57.808,311.604 57.324 C 311.511 56.841,311.435 57.236,311.435 58.203 M225.391 76.367 C 224.442 77.334,223.753 78.125,223.861 78.125 C 223.968 78.125,224.832 77.334,225.781 76.367 C 226.730 75.400,227.419 74.609,227.311 74.609 C 227.204 74.609,226.339 75.400,225.391 76.367 M163.372 112.891 C 163.372 113.643,163.452 113.950,163.551 113.574 C 163.649 113.198,163.649 112.583,163.551 112.207 C 163.452 111.831,163.372 112.139,163.372 112.891 M287.671 118.066 L 286.523 119.336 287.793 118.189 C 288.491 117.558,289.063 116.986,289.063 116.919 C 289.063 116.617,288.740 116.883,287.671 118.066 M205.217 125.586 C 205.216 127.520,205.282 128.360,205.364 127.453 C 205.445 126.547,205.446 124.965,205.366 123.938 C 205.285 122.911,205.218 123.652,205.217 125.586 M230.762 141.694 C 231.890 141.773,233.735 141.773,234.863 141.694 C 235.991 141.615,235.068 141.551,232.813 141.551 C 230.557 141.551,229.634 141.615,230.762 141.694 M145.605 144.819 C 146.733 144.898,148.579 144.898,149.707 144.819 C 150.835 144.740,149.912 144.676,147.656 144.676 C 145.400 144.676,144.478 144.740,145.605 144.819 M247.175 145.205 C 247.877 145.292,248.932 145.290,249.519 145.201 C 250.106 145.112,249.531 145.041,248.242 145.043 C 246.953 145.045,246.473 145.118,247.175 145.205 M253.813 145.198 C 254.299 145.292,255.002 145.288,255.376 145.190 C 255.749 145.092,255.352 145.016,254.492 145.020 C 253.633 145.025,253.327 145.105,253.813 145.198 M81.731 212.891 C 81.731 213.643,81.812 213.950,81.910 213.574 C 82.008 213.198,82.008 212.583,81.910 212.207 C 81.812 211.831,81.731 212.139,81.731 212.891 M316.547 222.656 C 316.547 224.697,316.613 225.532,316.693 224.512 C 316.774 223.491,316.774 221.821,316.693 220.801 C 316.613 219.780,316.547 220.615,316.547 222.656 M123.040 320.801 C 125.292 323.110,127.182 325.000,127.239 325.000 C 127.521 325.000,127.045 324.499,123.145 320.696 L 118.945 316.602 123.040 320.801 M197.363 338.175 C 198.169 338.259,199.487 338.259,200.293 338.175 C 201.099 338.091,200.439 338.022,198.828 338.022 C 197.217 338.022,196.558 338.091,197.363 338.175 " stroke="none" fill="#849d7e" fill-rule="evenodd"></path></g></svg>