<svg id="svg" version="1.1" xmlns="http://www.w3.org/2000/svg" xmlns:xlink="http://www.w3.org/1999/xlink" width="400" height="400" viewBox="0, 0, 400,400"><g id="svgg"><path id="path0" d="M275.361 90.735 C 270.974 92.481,270.487 93.359,272.118 96.579 C 274.183 100.653,276.802 110.195,277.383 115.758 C 278.211 123.683,277.149 130.642,274.215 136.523 C 271.795 141.373,269.796 145.104,269.256 145.777 C 269.030 146.058,268.721 146.729,268.568 147.266 C 268.339 148.069,268.451 148.003,269.204 146.890 C 270.816 144.503,278.184 137.436,279.848 136.680 C 282.123 135.647,286.068 135.951,285.355 137.104 C 285.223 137.317,285.360 137.397,285.659 137.282 C 286.989 136.772,287.839 142.009,286.904 144.953 C 286.605 145.895,286.267 147.927,286.049 150.097 C 285.946 151.118,285.747 151.883,285.607 151.799 C 285.466 151.714,285.298 152.901,285.232 154.436 C 285.167 155.971,284.936 157.930,284.719 158.789 C 283.738 162.682,283.166 165.196,282.821 167.135 C 282.616 168.287,282.108 169.957,281.693 170.845 C 281.278 171.734,280.824 173.120,280.686 173.926 C 280.547 174.731,280.221 175.391,279.961 175.391 C 279.504 175.391,278.618 177.447,278.340 179.151 C 278.265 179.607,278.011 180.343,277.774 180.785 C 277.537 181.227,277.344 181.958,277.344 182.408 C 277.344 182.859,277.080 183.329,276.758 183.452 C 276.436 183.576,276.172 184.000,276.172 184.394 C 276.172 184.788,275.981 185.228,275.747 185.373 C 275.514 185.517,275.409 185.967,275.515 186.372 C 275.621 186.778,275.549 187.109,275.354 187.109 C 275.159 187.109,275.000 187.604,275.000 188.208 C 275.000 189.384,273.632 191.182,273.024 190.806 C 272.822 190.681,272.656 190.930,272.656 191.360 C 272.656 191.790,272.476 192.253,272.255 192.389 C 272.035 192.526,271.895 192.844,271.946 193.096 C 272.136 194.050,271.395 195.892,270.481 196.739 C 269.959 197.223,269.531 197.891,269.531 198.224 C 269.531 198.556,269.361 198.828,269.153 198.828 C 268.945 198.828,268.871 199.079,268.989 199.387 C 269.284 200.155,268.034 202.672,267.112 203.165 C 266.661 203.407,266.394 203.912,266.448 204.421 C 266.590 205.768,264.087 209.766,263.101 209.766 C 262.818 209.766,262.475 210.361,262.339 211.090 C 262.108 212.316,261.106 213.103,260.012 212.917 C 259.826 212.886,259.789 213.321,259.930 213.885 C 260.098 214.551,260.045 214.821,259.781 214.658 C 259.550 214.515,259.375 214.754,259.375 215.211 C 259.375 215.654,259.243 215.978,259.082 215.933 C 258.529 215.776,257.031 216.824,257.031 217.368 C 257.031 218.042,255.113 219.599,254.642 219.308 C 254.321 219.109,254.245 219.308,254.136 220.622 C 254.113 220.899,253.920 221.251,253.707 221.403 C 253.494 221.555,253.079 222.207,252.786 222.852 C 251.816 224.984,251.711 225.140,250.959 225.560 C 250.549 225.789,250.033 226.184,249.814 226.437 C 249.594 226.691,248.975 226.954,248.438 227.023 C 247.783 227.107,247.268 227.564,246.875 228.410 C 246.213 229.834,245.313 230.102,245.313 228.874 C 245.313 227.839,244.351 228.101,244.296 229.150 C 244.212 230.737,243.363 231.726,242.312 231.463 C 241.606 231.285,241.376 231.358,241.496 231.721 C 241.682 232.289,243.750 232.665,243.750 232.131 C 243.750 231.654,245.261 230.078,245.718 230.078 C 245.925 230.078,246.094 230.342,246.094 230.664 C 246.094 230.986,245.786 231.250,245.410 231.250 C 245.034 231.250,244.236 231.865,243.636 232.617 C 243.036 233.369,242.225 233.984,241.835 233.984 C 241.391 233.984,240.774 234.645,240.192 235.742 C 239.620 236.820,238.990 237.500,238.563 237.500 C 238.180 237.500,237.765 237.764,237.641 238.086 C 237.518 238.408,237.172 238.672,236.872 238.672 C 236.573 238.672,236.328 238.848,236.328 239.063 C 236.328 239.277,236.070 239.453,235.754 239.453 C 235.421 239.453,235.269 239.684,235.392 240.004 C 235.519 240.335,235.281 240.657,234.794 240.811 C 234.349 240.953,233.984 241.232,233.984 241.433 C 233.984 242.004,232.960 241.859,232.422 241.211 C 232.154 240.889,231.781 240.625,231.593 240.625 C 230.989 240.625,231.226 241.888,231.934 242.438 C 232.572 242.936,232.568 242.953,231.866 242.707 C 231.306 242.510,231.170 242.588,231.334 243.015 C 231.675 243.905,230.654 245.033,229.762 244.750 C 229.280 244.597,228.919 244.716,228.782 245.072 C 228.573 245.618,227.092 246.590,225.684 247.106 C 225.298 247.248,225.000 247.756,225.000 248.274 C 225.000 248.781,224.662 249.372,224.244 249.596 C 223.195 250.157,222.924 250.102,223.201 249.381 C 223.353 248.985,223.263 248.827,222.949 248.942 C 222.681 249.040,222.505 249.319,222.559 249.561 C 222.612 249.802,222.393 250.000,222.070 250.000 C 221.748 250.000,221.484 250.176,221.484 250.391 C 221.484 250.605,221.177 250.784,220.801 250.788 C 220.425 250.792,219.703 251.231,219.197 251.765 C 218.691 252.298,217.955 252.734,217.560 252.734 C 217.166 252.734,216.739 252.902,216.612 253.108 C 216.485 253.313,216.139 253.389,215.843 253.275 C 215.527 253.154,215.199 253.402,215.048 253.878 C 214.907 254.323,214.520 254.688,214.190 254.688 C 213.825 254.688,213.674 254.910,213.806 255.254 C 213.957 255.649,213.835 255.748,213.400 255.581 C 213.056 255.449,212.585 255.603,212.346 255.927 C 212.108 256.248,211.421 256.634,210.819 256.784 C 210.217 256.934,209.004 257.578,208.124 258.216 C 207.244 258.853,206.242 259.377,205.898 259.379 C 205.555 259.381,204.395 259.814,203.320 260.343 C 200.155 261.900,199.813 261.762,199.759 258.903 C 199.731 257.409,199.535 256.420,199.247 256.324 C 198.922 256.216,198.984 255.944,199.451 255.428 C 200.085 254.728,200.083 254.645,199.414 253.906 C 198.755 253.178,198.751 253.077,199.354 252.411 C 200.375 251.282,200.176 251.172,197.112 251.172 C 194.905 251.172,194.171 251.034,193.999 250.586 C 193.815 250.106,194.189 250.000,196.064 250.000 C 197.739 250.000,198.414 249.843,198.579 249.414 C 198.702 249.092,199.073 248.828,199.402 248.828 C 199.731 248.828,200.000 248.596,200.000 248.313 C 200.000 246.639,203.315 245.253,203.439 246.875 C 203.488 247.520,203.349 248.047,203.131 248.047 C 202.913 248.047,202.734 248.291,202.734 248.588 C 202.734 249.150,204.482 249.663,206.348 249.649 C 206.938 249.645,207.422 249.812,207.422 250.020 C 207.422 250.244,208.062 250.297,208.984 250.150 C 209.942 249.997,210.547 250.053,210.547 250.295 C 210.547 250.512,210.898 250.782,211.328 250.894 C 212.439 251.185,212.315 250.917,210.547 249.219 C 209.687 248.393,208.984 247.528,208.984 247.296 C 208.984 247.065,208.457 246.875,207.813 246.875 C 206.550 246.875,206.356 246.551,207.129 245.732 C 207.520 245.318,207.520 245.179,207.129 245.036 C 206.435 244.781,206.524 243.354,207.287 242.511 C 207.873 241.863,207.875 241.797,207.307 241.797 C 206.962 241.797,206.539 242.024,206.367 242.302 C 205.888 243.077,203.396 244.137,202.940 243.760 C 202.719 243.578,201.884 243.307,201.083 243.157 C 199.802 242.918,199.675 242.796,200.024 242.142 C 200.308 241.613,200.682 241.465,201.328 241.627 C 202.253 241.859,204.761 240.180,204.252 239.669 C 203.932 239.348,200.389 240.307,200.605 240.656 C 200.697 240.805,200.467 240.903,200.094 240.874 C 199.665 240.840,199.368 241.145,199.289 241.700 C 199.188 242.412,198.988 242.535,198.237 242.347 C 197.568 242.179,197.007 242.396,196.218 243.127 C 195.617 243.685,194.826 244.141,194.461 244.141 C 194.095 244.141,193.690 244.312,193.561 244.521 C 193.432 244.730,192.587 245.098,191.683 245.340 C 189.834 245.834,188.967 246.405,189.285 246.919 C 189.403 247.110,188.983 247.266,188.352 247.266 C 187.169 247.266,183.004 248.983,182.600 249.638 C 182.474 249.840,181.922 249.925,181.372 249.825 C 180.823 249.725,180.481 249.752,180.613 249.884 C 180.745 250.015,180.657 250.359,180.418 250.648 C 180.092 251.040,180.109 251.172,180.486 251.172 C 180.763 251.172,180.874 251.288,180.733 251.429 C 180.591 251.570,180.675 251.926,180.918 252.220 C 181.162 252.513,181.248 252.866,181.110 253.004 C 180.972 253.142,180.859 253.056,180.859 252.812 C 180.859 252.568,180.613 252.463,180.312 252.578 C 179.661 252.828,179.734 253.843,180.435 254.276 C 180.793 254.497,180.595 254.823,179.726 255.441 C 179.063 255.913,178.344 256.190,178.128 256.056 C 177.445 255.635,177.693 254.235,178.486 254.027 C 179.231 253.832,179.312 252.586,178.622 251.909 C 178.287 251.580,176.097 252.030,172.266 253.216 C 170.869 253.648,169.171 254.071,168.491 254.155 C 167.017 254.337,165.142 255.246,165.501 255.605 C 165.641 255.745,165.452 255.859,165.081 255.859 C 164.710 255.859,164.504 255.703,164.622 255.511 C 164.939 254.998,161.786 255.770,159.935 256.659 C 159.062 257.079,157.903 257.422,157.361 257.422 C 156.818 257.422,154.711 257.769,152.677 258.194 C 150.644 258.619,147.232 259.225,145.096 259.542 C 130.989 261.636,124.320 262.727,123.341 263.102 C 123.072 263.205,121.709 263.455,120.313 263.657 C 114.199 264.544,103.405 267.694,99.480 269.737 C 98.872 270.053,98.081 270.318,97.722 270.325 C 97.364 270.332,96.729 270.595,96.312 270.911 C 95.895 271.226,95.182 271.484,94.729 271.484 C 94.275 271.484,93.034 271.907,91.971 272.422 C 90.909 272.938,89.512 273.447,88.867 273.552 C 87.368 273.796,81.489 275.109,81.309 275.239 C 81.079 275.406,82.073 278.125,82.363 278.125 C 83.132 278.125,84.079 280.901,83.857 282.503 C 82.858 289.719,82.482 291.336,81.269 293.622 L 79.990 296.034 81.219 297.236 C 81.896 297.897,82.602 298.438,82.789 298.438 C 82.976 298.437,83.866 299.053,84.766 299.805 C 85.666 300.557,86.565 301.172,86.763 301.172 C 86.962 301.172,87.868 301.653,88.777 302.242 C 89.686 302.830,90.913 303.524,91.504 303.785 C 92.095 304.046,92.578 304.454,92.578 304.692 C 92.578 304.930,92.734 305.028,92.924 304.910 C 93.115 304.792,93.496 304.968,93.772 305.300 C 94.327 305.969,98.640 308.203,99.376 308.203 C 99.633 308.203,100.063 308.423,100.332 308.691 C 100.601 308.960,100.953 309.180,101.114 309.180 C 101.276 309.180,102.541 309.755,103.927 310.458 C 105.312 311.161,106.952 311.828,107.572 311.940 C 108.192 312.052,109.159 312.375,109.721 312.657 C 110.282 312.939,111.270 313.270,111.914 313.392 C 112.559 313.515,113.613 313.831,114.258 314.094 C 115.420 314.569,115.955 314.743,116.895 314.952 C 117.163 315.012,117.603 315.198,117.871 315.366 C 118.140 315.534,118.359 315.589,118.359 315.488 C 118.359 315.387,119.370 315.546,120.605 315.842 C 121.841 316.137,123.335 316.385,123.926 316.392 C 124.517 316.400,125.000 316.562,125.000 316.753 C 125.000 316.944,126.802 317.302,129.004 317.550 C 131.206 317.798,134.414 318.161,136.133 318.355 C 172.474 322.476,222.090 309.030,253.906 286.438 C 280.000 267.909,299.697 246.235,309.932 224.789 C 310.859 222.847,312.341 219.761,313.226 217.933 C 324.293 195.070,327.241 167.622,320.488 150.339 C 317.158 141.817,314.314 138.037,304.072 128.516 C 297.445 122.355,293.144 109.660,293.238 96.537 L 293.284 90.144 291.857 90.399 C 291.072 90.539,289.375 90.838,288.086 91.064 C 285.524 91.512,282.247 91.290,281.432 90.614 C 280.421 89.775,277.635 89.830,275.361 90.735 M255.754 183.049 C 255.597 183.205,255.469 183.603,255.469 183.932 C 255.469 184.372,255.584 184.416,255.903 184.097 C 256.142 183.858,256.271 183.460,256.188 183.213 C 256.106 182.966,255.910 182.892,255.754 183.049 M253.353 187.361 C 253.217 187.714,253.223 188.109,253.365 188.240 C 253.506 188.370,253.701 188.257,253.797 187.988 C 254.141 187.024,254.697 187.523,254.449 188.574 C 254.248 189.426,254.298 189.553,254.687 189.189 C 255.302 188.612,254.880 186.719,254.136 186.719 C 253.841 186.719,253.488 187.008,253.353 187.361 M254.582 190.493 C 253.848 191.734,253.872 193.465,254.633 194.174 C 255.746 195.210,255.768 195.179,255.561 192.871 C 255.380 190.858,254.965 189.847,254.582 190.493 M251.641 191.484 C 251.103 192.022,250.998 193.122,251.515 192.803 C 251.810 192.620,252.416 191.016,252.190 191.016 C 252.146 191.016,251.898 191.227,251.641 191.484 M246.357 198.987 C 246.137 199.560,246.390 200.000,246.940 200.000 C 247.376 200.000,247.357 198.931,246.916 198.658 C 246.724 198.539,246.472 198.687,246.357 198.987 M241.504 222.850 C 240.839 223.605,240.886 226.489,241.574 227.176 C 242.208 227.811,244.141 227.937,244.141 227.344 C 244.141 227.129,243.965 226.953,243.750 226.953 C 243.535 226.953,243.359 226.426,243.359 225.781 C 243.359 224.870,243.533 224.609,244.141 224.609 C 244.661 224.609,244.922 224.349,244.922 223.828 C 244.922 223.307,244.661 223.047,244.141 223.047 C 243.711 223.047,243.359 222.871,243.359 222.656 C 243.359 222.076,242.066 222.211,241.504 222.850 M222.754 225.259 C 222.485 225.367,222.266 225.695,222.266 225.987 C 222.266 226.279,221.887 226.784,221.424 227.108 L 220.581 227.698 221.899 228.929 L 223.216 230.159 223.550 229.045 C 224.491 225.894,224.232 224.662,222.754 225.259 M235.156 225.781 C 235.156 226.302,235.417 226.563,235.938 226.563 C 236.458 226.563,236.719 226.302,236.719 225.781 C 236.719 225.260,236.458 225.000,235.938 225.000 C 235.417 225.000,235.156 225.260,235.156 225.781 M217.828 230.349 C 217.388 230.789,217.560 231.250,218.164 231.250 C 218.486 231.250,218.750 231.085,218.750 230.882 C 218.750 230.390,218.140 230.037,217.828 230.349 M215.527 231.541 C 214.723 231.726,214.705 231.824,215.280 232.897 C 215.641 233.573,215.614 233.673,215.123 233.485 C 214.746 233.340,214.458 233.531,214.333 234.011 C 214.224 234.426,213.856 234.766,213.513 234.766 C 212.399 234.766,212.859 235.349,214.038 235.432 C 214.834 235.487,215.237 235.308,215.359 234.846 C 215.492 234.340,215.545 234.380,215.580 235.013 C 215.605 235.471,215.933 235.927,216.309 236.026 C 216.910 236.184,216.976 235.944,216.860 234.021 C 216.715 231.625,216.545 231.308,215.527 231.541 M209.984 240.833 C 209.295 241.354,209.288 241.406,209.914 241.406 C 210.293 241.406,210.866 241.143,211.189 240.820 C 211.981 240.028,211.035 240.038,209.984 240.833 M219.434 241.291 C 219.917 241.384,220.708 241.384,221.191 241.291 C 221.675 241.198,221.279 241.122,220.313 241.122 C 219.346 241.122,218.950 241.198,219.434 241.291 M219.434 242.854 C 219.917 242.947,220.708 242.947,221.191 242.854 C 221.675 242.761,221.279 242.685,220.313 242.685 C 219.346 242.685,218.950 242.761,219.434 242.854 M200.893 244.575 C 200.234 245.235,199.451 244.607,200.043 243.894 C 200.369 243.500,200.638 243.451,200.921 243.733 C 201.203 244.016,201.195 244.274,200.893 244.575 M192.944 247.648 C 191.496 248.886,191.116 249.004,190.275 248.471 C 188.876 247.585,191.071 246.452,193.457 246.829 C 193.618 246.854,193.750 246.670,193.750 246.419 C 193.750 246.169,193.871 246.084,194.019 246.232 C 194.166 246.380,193.683 247.017,192.944 247.648 M212.948 250.517 C 212.604 250.931,212.895 251.050,214.429 251.120 C 215.580 251.173,216.453 251.021,216.628 250.739 C 216.805 250.453,216.752 250.372,216.494 250.532 C 216.260 250.676,215.959 250.615,215.824 250.397 C 215.470 249.825,213.453 249.908,212.948 250.517 M201.172 256.782 C 201.172 257.150,201.499 257.251,202.235 257.110 C 203.190 256.928,203.220 256.876,202.528 256.606 C 201.395 256.163,201.172 256.192,201.172 256.782 M198.762 261.725 C 199.579 261.729,199.678 261.813,199.219 262.109 C 198.896 262.318,198.149 262.491,197.559 262.494 C 196.968 262.497,196.484 262.676,196.484 262.891 C 196.484 263.105,195.913 263.269,195.215 263.254 C 194.151 263.231,194.072 263.172,194.727 262.891 C 195.448 262.580,195.435 262.553,194.551 262.527 C 193.958 262.510,193.735 262.363,193.965 262.139 C 194.386 261.730,196.417 261.381,197.200 261.584 C 197.486 261.658,198.189 261.721,198.762 261.725 " stroke="none" fill="#f2d03a" fill-rule="evenodd"></path><path id="path1" d="M0.000 200.000 L 0.000 400.000 200.000 400.000 L 400.000 400.000 400.000 200.000 L 400.000 0.000 200.000 0.000 L 0.000 0.000 0.000 200.000 M294.222 78.027 C 294.267 82.271,294.310 90.049,294.319 95.313 C 294.345 109.894,298.173 121.962,304.610 127.748 C 305.676 128.708,307.637 130.459,308.967 131.641 C 322.297 143.484,327.529 162.802,323.831 186.523 C 321.006 204.638,311.723 226.629,300.250 242.383 C 292.437 253.112,281.039 265.849,274.169 271.529 C 273.229 272.306,271.339 273.888,269.968 275.045 C 268.597 276.202,266.847 277.635,266.080 278.230 C 265.313 278.824,264.590 279.446,264.472 279.611 C 263.800 280.553,250.405 289.763,244.922 293.052 C 235.107 298.940,215.065 307.987,206.641 310.332 C 205.674 310.602,202.773 311.451,200.195 312.220 C 160.177 324.159,118.467 321.408,91.992 305.084 C 90.488 304.156,88.467 302.957,87.500 302.418 C 85.394 301.244,80.489 297.660,79.737 296.745 C 79.442 296.387,78.983 296.094,78.716 296.094 C 73.195 296.094,73.768 274.995,79.297 274.705 C 82.258 274.550,92.246 271.292,101.563 267.443 C 110.161 263.891,117.515 262.014,132.422 259.569 C 144.250 257.628,152.172 256.191,153.906 255.670 C 154.873 255.379,157.070 254.845,158.789 254.482 C 162.807 253.634,170.532 251.442,173.811 250.220 C 175.217 249.696,178.125 248.606,180.273 247.799 C 193.669 242.764,211.682 231.807,222.444 222.148 C 231.406 214.106,242.220 201.133,247.257 192.383 C 247.752 191.523,248.547 190.205,249.025 189.453 C 252.065 184.665,256.508 175.437,259.616 167.451 C 266.814 148.962,268.392 145.364,271.284 140.851 C 275.994 133.500,278.238 122.223,276.617 114.063 C 275.048 106.169,273.077 99.896,270.802 95.555 L 269.283 92.656 273.064 89.124 C 275.144 87.182,278.368 83.692,280.229 81.370 C 284.849 75.606,291.351 70.313,293.812 70.313 C 293.993 70.313,294.177 73.784,294.222 78.027 " stroke="none" fill="#f7f7f4" fill-rule="evenodd"></path><path id="path2" d="M291.184 71.690 C 288.430 73.024,284.102 76.923,281.006 80.859 C 279.570 82.686,276.395 86.157,273.950 88.574 C 271.506 90.991,269.740 92.969,270.026 92.969 C 270.313 92.969,270.714 92.818,270.918 92.634 C 273.078 90.685,279.199 89.369,281.227 90.418 C 282.914 91.290,289.413 91.070,292.285 90.043 L 294.141 89.380 294.141 86.549 C 294.141 81.484,293.633 70.703,293.396 70.717 C 293.268 70.725,292.273 71.163,291.184 71.690 M77.571 276.291 C 73.390 281.772,74.332 296.227,78.861 296.086 C 79.711 296.060,82.077 290.810,82.418 288.196 C 82.622 286.632,82.970 284.737,83.191 283.987 C 83.851 281.750,83.672 280.997,82.026 279.095 C 81.163 278.099,80.192 276.770,79.867 276.142 C 79.114 274.685,78.779 274.707,77.571 276.291 " stroke="none" fill="#5f3d1b" fill-rule="evenodd"></path><path id="path3" d="M293.928 93.259 C 293.569 98.051,293.942 104.678,294.714 107.227 C 295.040 108.301,295.224 108.652,295.123 108.008 C 294.163 101.875,294.070 100.465,294.288 95.215 C 294.558 88.671,294.355 87.565,293.928 93.259 M270.093 91.895 L 268.945 93.164 270.215 92.017 C 270.913 91.386,271.484 90.814,271.484 90.747 C 271.484 90.445,271.162 90.711,270.093 91.895 M270.996 92.802 C 269.681 93.515,269.670 93.274,271.150 96.203 C 273.184 100.227,275.132 106.594,276.617 114.063 C 278.238 122.223,275.994 133.500,271.284 140.851 C 268.392 145.364,266.814 148.962,259.616 167.451 C 256.508 175.437,252.065 184.665,249.025 189.453 C 248.547 190.205,247.752 191.523,247.257 192.383 C 235.762 212.350,215.546 230.625,191.798 242.516 C 187.608 244.614,182.422 246.991,180.273 247.799 C 178.125 248.606,175.217 249.696,173.811 250.220 C 170.532 251.442,162.807 253.634,158.789 254.482 C 157.070 254.845,154.873 255.379,153.906 255.670 C 152.172 256.191,144.250 257.628,132.422 259.569 C 117.515 262.014,110.161 263.891,101.563 267.443 C 93.389 270.820,89.630 272.143,84.609 273.411 C 82.061 274.055,79.901 274.657,79.809 274.749 C 79.539 275.018,80.703 277.470,81.503 278.320 C 81.908 278.750,82.632 279.609,83.112 280.228 C 83.592 280.848,83.984 281.170,83.984 280.944 C 83.984 280.383,82.681 278.131,82.355 278.127 C 82.070 278.125,81.084 275.402,81.309 275.239 C 81.489 275.109,87.368 273.796,88.867 273.552 C 89.512 273.447,90.909 272.938,91.971 272.422 C 93.034 271.907,94.275 271.484,94.729 271.484 C 95.182 271.484,95.895 271.226,96.312 270.911 C 96.729 270.595,97.364 270.332,97.722 270.325 C 98.081 270.318,98.872 270.053,99.480 269.737 C 103.405 267.694,114.199 264.544,120.313 263.657 C 121.709 263.455,123.072 263.205,123.341 263.102 C 124.320 262.727,130.989 261.636,145.096 259.542 C 147.232 259.225,150.644 258.619,152.677 258.194 C 154.711 257.769,156.818 257.422,157.361 257.422 C 157.903 257.422,159.062 257.079,159.935 256.659 C 161.786 255.770,164.939 254.998,164.622 255.511 C 164.504 255.703,164.710 255.859,165.081 255.859 C 165.452 255.859,165.641 255.745,165.501 255.605 C 165.142 255.246,167.017 254.337,168.491 254.155 C 169.171 254.071,170.869 253.648,172.266 253.216 C 176.097 252.030,178.287 251.580,178.622 251.909 C 179.312 252.586,179.231 253.832,178.486 254.027 C 177.693 254.235,177.445 255.635,178.128 256.056 C 178.344 256.190,179.063 255.913,179.726 255.441 C 180.595 254.823,180.793 254.497,180.435 254.276 C 179.734 253.843,179.661 252.828,180.312 252.578 C 180.613 252.463,180.859 252.568,180.859 252.812 C 180.859 253.056,180.972 253.142,181.110 253.004 C 181.248 252.866,181.162 252.513,180.918 252.220 C 180.675 251.926,180.591 251.570,180.733 251.429 C 180.874 251.288,180.763 251.172,180.486 251.172 C 180.109 251.172,180.092 251.040,180.418 250.648 C 180.657 250.359,180.745 250.015,180.613 249.884 C 180.481 249.752,180.823 249.725,181.372 249.825 C 181.922 249.925,182.474 249.840,182.600 249.638 C 183.004 248.983,187.169 247.266,188.352 247.266 C 188.983 247.266,189.403 247.110,189.285 246.919 C 188.967 246.405,189.834 245.834,191.683 245.340 C 192.587 245.098,193.432 244.730,193.561 244.521 C 193.690 244.312,194.095 244.141,194.461 244.141 C 194.826 244.141,195.617 243.685,196.218 243.127 C 197.007 242.396,197.568 242.179,198.237 242.347 C 198.988 242.535,199.188 242.412,199.289 241.700 C 199.368 241.145,199.665 240.840,200.094 240.874 C 200.467 240.903,200.697 240.805,200.605 240.656 C 200.389 240.307,203.932 239.348,204.252 239.669 C 204.761 240.180,202.253 241.859,201.328 241.627 C 200.682 241.465,200.308 241.613,200.024 242.142 C 199.675 242.796,199.802 242.918,201.083 243.157 C 201.884 243.307,202.719 243.578,202.940 243.760 C 203.396 244.137,205.888 243.077,206.367 242.302 C 206.539 242.024,206.962 241.797,207.307 241.797 C 207.875 241.797,207.873 241.863,207.287 242.511 C 206.524 243.354,206.435 244.781,207.129 245.036 C 207.520 245.179,207.520 245.318,207.129 245.732 C 206.356 246.551,206.550 246.875,207.813 246.875 C 208.457 246.875,208.984 247.065,208.984 247.296 C 208.984 247.528,209.687 248.393,210.547 249.219 C 212.315 250.917,212.439 251.185,211.328 250.894 C 210.898 250.782,210.547 250.512,210.547 250.295 C 210.547 250.053,209.942 249.997,208.984 250.150 C 208.062 250.297,207.422 250.244,207.422 250.020 C 207.422 249.812,206.938 249.645,206.348 249.649 C 204.482 249.663,202.734 249.150,202.734 248.588 C 202.734 248.291,202.913 248.047,203.131 248.047 C 203.349 248.047,203.488 247.520,203.439 246.875 C 203.315 245.253,200.000 246.639,200.000 248.313 C 200.000 248.596,199.731 248.828,199.402 248.828 C 199.073 248.828,198.702 249.092,198.579 249.414 C 198.414 249.843,197.739 250.000,196.064 250.000 C 194.189 250.000,193.815 250.106,193.999 250.586 C 194.171 251.034,194.905 251.172,197.112 251.172 C 200.176 251.172,200.375 251.282,199.354 252.411 C 198.751 253.077,198.755 253.178,199.414 253.906 C 200.083 254.645,200.085 254.728,199.451 255.428 C 198.984 255.944,198.922 256.216,199.247 256.324 C 199.535 256.420,199.731 257.409,199.759 258.903 C 199.813 261.762,200.155 261.900,203.320 260.343 C 204.395 259.814,205.555 259.381,205.898 259.379 C 206.242 259.377,207.244 258.853,208.124 258.216 C 209.004 257.578,210.217 256.934,210.819 256.784 C 211.421 256.634,212.108 256.248,212.346 255.927 C 212.585 255.603,213.056 255.449,213.400 255.581 C 213.835 255.748,213.957 255.649,213.806 255.254 C 213.674 254.910,213.825 254.688,214.190 254.688 C 214.520 254.688,214.907 254.323,215.048 253.878 C 215.199 253.402,215.527 253.154,215.843 253.275 C 216.139 253.389,216.485 253.313,216.612 253.108 C 216.739 252.902,217.166 252.734,217.560 252.734 C 217.955 252.734,218.691 252.298,219.197 251.765 C 219.703 251.231,220.425 250.792,220.801 250.788 C 221.177 250.784,221.484 250.605,221.484 250.391 C 221.484 250.176,221.748 250.000,222.070 250.000 C 222.393 250.000,222.612 249.802,222.559 249.561 C 222.505 249.319,222.681 249.040,222.949 248.942 C 223.263 248.827,223.353 248.985,223.201 249.381 C 222.924 250.102,223.195 250.157,224.244 249.596 C 224.662 249.372,225.000 248.781,225.000 248.274 C 225.000 247.756,225.298 247.248,225.684 247.106 C 227.092 246.590,228.573 245.618,228.782 245.072 C 228.919 244.716,229.280 244.597,229.762 244.750 C 230.654 245.033,231.675 243.905,231.334 243.015 C 231.170 242.588,231.306 242.510,231.866 242.707 C 232.568 242.953,232.572 242.936,231.934 242.438 C 231.226 241.888,230.989 240.625,231.593 240.625 C 231.781 240.625,232.154 240.889,232.422 241.211 C 232.960 241.859,233.984 242.004,233.984 241.433 C 233.984 241.232,234.349 240.953,234.794 240.811 C 235.281 240.657,235.519 240.335,235.392 240.004 C 235.269 239.684,235.421 239.453,235.754 239.453 C 236.070 239.453,236.328 239.277,236.328 239.063 C 236.328 238.848,236.573 238.672,236.872 238.672 C 237.172 238.672,237.518 238.408,237.641 238.086 C 237.765 237.764,238.180 237.500,238.563 237.500 C 238.990 237.500,239.620 236.820,240.192 235.742 C 240.774 234.645,241.391 233.984,241.835 233.984 C 242.225 233.984,243.036 233.369,243.636 232.617 C 244.236 231.865,245.034 231.250,245.410 231.250 C 245.786 231.250,246.094 230.986,246.094 230.664 C 246.094 230.342,245.925 230.078,245.718 230.078 C 245.261 230.078,243.750 231.654,243.750 232.131 C 243.750 232.665,241.682 232.289,241.496 231.721 C 241.376 231.358,241.606 231.285,242.312 231.463 C 243.363 231.726,244.212 230.737,244.296 229.150 C 244.351 228.101,245.313 227.839,245.313 228.874 C 245.313 230.102,246.213 229.834,246.875 228.410 C 247.268 227.564,247.783 227.107,248.438 227.023 C 248.975 226.954,249.594 226.691,249.814 226.437 C 250.033 226.184,250.549 225.789,250.959 225.560 C 251.711 225.140,251.816 224.984,252.786 222.852 C 253.079 222.207,253.494 221.555,253.707 221.403 C 253.920 221.251,254.113 220.899,254.136 220.622 C 254.245 219.308,254.321 219.109,254.642 219.308 C 255.113 219.599,257.031 218.042,257.031 217.368 C 257.031 216.824,258.529 215.776,259.082 215.933 C 259.243 215.978,259.375 215.654,259.375 215.211 C 259.375 214.754,259.550 214.515,259.781 214.658 C 260.045 214.821,260.098 214.551,259.930 213.885 C 259.789 213.321,259.826 212.886,260.012 212.917 C 261.106 213.103,262.108 212.316,262.339 211.090 C 262.475 210.361,262.818 209.766,263.101 209.766 C 264.087 209.766,266.590 205.768,266.448 204.421 C 266.394 203.912,266.661 203.407,267.112 203.165 C 268.034 202.672,269.284 200.155,268.989 199.387 C 268.871 199.079,268.945 198.828,269.153 198.828 C 269.361 198.828,269.531 198.556,269.531 198.224 C 269.531 197.891,269.959 197.223,270.481 196.739 C 271.395 195.892,272.136 194.050,271.946 193.096 C 271.895 192.844,272.035 192.526,272.255 192.389 C 272.476 192.253,272.656 191.790,272.656 191.360 C 272.656 190.930,272.822 190.681,273.024 190.806 C 273.632 191.182,275.000 189.384,275.000 188.208 C 275.000 187.604,275.159 187.109,275.354 187.109 C 275.549 187.109,275.621 186.778,275.515 186.372 C 275.409 185.967,275.514 185.517,275.747 185.373 C 275.981 185.228,276.172 184.788,276.172 184.394 C 276.172 184.000,276.436 183.576,276.758 183.452 C 277.080 183.329,277.344 182.859,277.344 182.408 C 277.344 181.958,277.537 181.227,277.774 180.785 C 278.011 180.343,278.265 179.607,278.340 179.151 C 278.618 177.447,279.504 175.391,279.961 175.391 C 280.221 175.391,280.547 174.731,280.686 173.926 C 280.824 173.120,281.278 171.734,281.693 170.845 C 282.108 169.957,282.616 168.287,282.821 167.135 C 283.166 165.196,283.738 162.682,284.719 158.789 C 284.936 157.930,285.167 155.971,285.232 154.436 C 285.298 152.901,285.466 151.714,285.607 151.799 C 285.747 151.883,285.946 151.118,286.049 150.097 C 286.267 147.927,286.605 145.895,286.904 144.953 C 287.839 142.009,286.989 136.772,285.659 137.282 C 285.360 137.397,285.223 137.317,285.355 137.104 C 286.068 135.951,282.123 135.647,279.848 136.680 C 278.156 137.449,270.743 144.578,269.238 146.884 C 267.405 149.694,268.456 146.867,270.557 143.339 C 276.318 133.662,277.433 130.005,277.459 120.703 C 277.481 112.606,275.244 102.768,271.855 96.054 L 270.706 93.778 271.559 92.983 C 272.564 92.047,272.452 92.011,270.996 92.802 M295.353 109.706 C 295.022 113.982,301.333 125.818,305.986 129.649 C 313.883 136.149,320.160 146.522,322.644 157.173 C 326.496 173.694,322.660 198.443,313.226 217.933 C 312.341 219.761,310.859 222.847,309.932 224.789 C 299.697 246.235,280.000 267.909,253.906 286.438 C 231.602 302.275,199.099 314.383,169.813 317.764 C 134.066 321.890,107.548 316.033,82.645 298.511 C 80.941 297.312,79.684 296.553,79.852 296.825 C 80.272 297.504,85.357 301.223,87.500 302.418 C 88.467 302.957,90.488 304.156,91.992 305.084 C 118.467 321.408,160.177 324.159,200.195 312.220 C 202.773 311.451,205.674 310.602,206.641 310.332 C 215.065 307.987,235.107 298.940,244.922 293.052 C 250.405 289.763,263.800 280.553,264.472 279.611 C 264.590 279.446,265.313 278.824,266.080 278.230 C 266.847 277.635,268.597 276.202,269.968 275.045 C 271.339 273.888,273.229 272.306,274.169 271.529 C 275.108 270.753,278.121 267.883,280.864 265.152 C 302.241 243.874,315.621 220.925,322.495 193.750 C 328.787 168.879,323.480 144.521,308.964 131.641 C 303.266 126.585,302.429 125.686,300.888 122.969 C 299.243 120.070,296.997 114.671,295.964 111.133 C 295.651 110.059,295.376 109.416,295.353 109.706 M255.903 184.097 C 255.584 184.416,255.469 184.372,255.469 183.932 C 255.469 183.156,255.994 182.631,256.188 183.213 C 256.271 183.460,256.142 183.858,255.903 184.097 M254.925 187.724 C 255.078 188.332,254.983 188.911,254.687 189.189 C 254.298 189.553,254.248 189.426,254.449 188.574 C 254.697 187.523,254.141 187.024,253.797 187.988 C 253.701 188.257,253.506 188.370,253.365 188.240 C 252.959 187.867,253.541 186.719,254.136 186.719 C 254.431 186.719,254.786 187.171,254.925 187.724 M255.561 192.871 C 255.768 195.179,255.746 195.210,254.633 194.174 C 253.991 193.576,253.886 193.164,254.109 192.123 C 254.680 189.463,255.283 189.773,255.561 192.871 M252.065 191.803 C 251.819 192.744,251.172 193.237,251.172 192.484 C 251.172 192.049,251.888 191.016,252.190 191.016 C 252.234 191.016,252.178 191.370,252.065 191.803 M247.266 199.437 C 247.266 200.012,246.800 200.186,246.381 199.766 C 246.029 199.414,246.514 198.410,246.916 198.658 C 247.108 198.777,247.266 199.128,247.266 199.437 M243.359 222.656 C 243.359 222.871,243.711 223.047,244.141 223.047 C 244.661 223.047,244.922 223.307,244.922 223.828 C 244.922 224.349,244.661 224.609,244.141 224.609 C 243.533 224.609,243.359 224.870,243.359 225.781 C 243.359 226.426,243.535 226.953,243.750 226.953 C 243.965 226.953,244.141 227.129,244.141 227.344 C 244.141 227.937,242.208 227.811,241.574 227.176 C 240.886 226.489,240.839 223.605,241.504 222.850 C 242.066 222.211,243.359 222.076,243.359 222.656 M224.040 226.465 C 223.953 227.271,223.733 228.431,223.550 229.045 L 223.216 230.159 221.899 228.929 L 220.581 227.698 221.424 227.108 C 221.887 226.784,222.266 226.279,222.266 225.987 C 222.266 225.455,222.823 225.089,223.719 225.031 C 224.042 225.010,224.146 225.476,224.040 226.465 M236.719 225.781 C 236.719 226.302,236.458 226.563,235.938 226.563 C 235.417 226.563,235.156 226.302,235.156 225.781 C 235.156 225.260,235.417 225.000,235.938 225.000 C 236.458 225.000,236.719 225.260,236.719 225.781 M218.750 230.882 C 218.750 231.085,218.486 231.250,218.164 231.250 C 217.560 231.250,217.388 230.789,217.828 230.349 C 218.140 230.037,218.750 230.390,218.750 230.882 M216.860 234.021 C 216.976 235.944,216.910 236.184,216.309 236.026 C 215.933 235.927,215.605 235.471,215.580 235.013 C 215.545 234.380,215.492 234.340,215.359 234.846 C 215.237 235.308,214.834 235.487,214.038 235.432 C 212.859 235.349,212.399 234.766,213.513 234.766 C 213.856 234.766,214.224 234.426,214.333 234.011 C 214.458 233.531,214.746 233.340,215.123 233.485 C 215.614 233.673,215.641 233.573,215.280 232.897 C 214.705 231.824,214.723 231.726,215.527 231.541 C 216.545 231.308,216.715 231.625,216.860 234.021 M211.189 240.820 C 210.866 241.143,210.293 241.406,209.914 241.406 C 209.288 241.406,209.295 241.354,209.984 240.833 C 211.035 240.038,211.981 240.028,211.189 240.820 M221.191 241.291 C 220.708 241.384,219.917 241.384,219.434 241.291 C 218.950 241.198,219.346 241.122,220.313 241.122 C 221.279 241.122,221.675 241.198,221.191 241.291 M221.191 242.854 C 220.708 242.947,219.917 242.947,219.434 242.854 C 218.950 242.761,219.346 242.685,220.313 242.685 C 221.279 242.685,221.675 242.761,221.191 242.854 M200.043 243.894 C 199.694 244.314,199.687 244.533,200.015 244.736 C 200.652 245.130,201.443 244.255,200.921 243.733 C 200.638 243.451,200.369 243.500,200.043 243.894 M193.750 246.419 C 193.750 246.670,193.618 246.854,193.457 246.829 C 192.043 246.606,190.175 246.965,189.970 247.500 C 189.737 248.108,190.420 248.826,191.211 248.806 C 191.842 248.790,194.312 246.526,194.019 246.232 C 193.871 246.084,193.750 246.169,193.750 246.419 M215.824 250.397 C 215.959 250.615,216.260 250.676,216.494 250.532 C 216.752 250.372,216.805 250.453,216.628 250.739 C 216.453 251.021,215.580 251.173,214.429 251.120 C 212.895 251.050,212.604 250.931,212.948 250.517 C 213.453 249.908,215.470 249.825,215.824 250.397 M202.528 256.606 C 203.220 256.876,203.190 256.928,202.235 257.110 C 201.499 257.251,201.172 257.150,201.172 256.782 C 201.172 256.192,201.395 256.163,202.528 256.606 M195.508 261.614 C 193.973 261.830,193.280 262.491,194.551 262.527 C 195.435 262.553,195.448 262.580,194.727 262.891 C 194.072 263.172,194.151 263.231,195.215 263.254 C 195.913 263.269,196.484 263.105,196.484 262.891 C 196.484 262.676,196.968 262.497,197.559 262.494 C 198.149 262.491,198.896 262.318,199.219 262.109 C 199.678 261.813,199.579 261.729,198.762 261.725 C 198.189 261.721,197.486 261.658,197.200 261.584 C 196.914 261.510,196.152 261.523,195.508 261.614 M83.046 285.031 C 82.919 285.637,82.649 287.342,82.446 288.819 C 82.164 290.869,81.741 292.011,80.658 293.641 C 79.594 295.244,78.928 297.164,79.819 296.061 C 81.310 294.216,82.625 290.823,83.051 287.722 C 83.521 284.302,83.519 282.778,83.046 285.031 " stroke="none" fill="#f0e28f" fill-rule="evenodd"></path><path id="path4" d="M293.748 74.920 L 293.941 79.492 294.055 75.229 C 294.117 72.884,294.030 70.826,293.862 70.657 C 293.693 70.487,293.642 72.406,293.748 74.920 M286.108 75.098 L 284.961 76.367 286.230 75.220 C 286.929 74.589,287.500 74.018,287.500 73.950 C 287.500 73.649,287.178 73.914,286.108 75.098 M274.405 87.988 L 271.289 91.211 274.512 88.095 C 276.284 86.381,277.734 84.931,277.734 84.872 C 277.734 84.588,277.299 84.995,274.405 87.988 M294.141 88.379 C 294.141 89.116,293.851 89.503,293.066 89.816 C 292.476 90.051,292.349 90.180,292.784 90.103 C 293.552 89.967,293.566 90.072,293.244 93.516 C 292.378 102.761,294.851 114.037,299.696 122.941 C 301.269 125.830,302.857 127.669,306.641 130.984 C 307.822 132.019,309.712 133.770,310.840 134.876 C 311.968 135.982,312.891 136.751,312.891 136.584 C 312.891 136.045,308.865 131.994,305.986 129.637 C 297.621 122.786,292.394 106.075,294.098 91.627 C 294.347 89.512,294.459 87.688,294.346 87.575 C 294.233 87.462,294.141 87.824,294.141 88.379 M284.082 91.295 C 284.673 91.385,285.640 91.385,286.230 91.295 C 286.821 91.206,286.338 91.133,285.156 91.133 C 283.975 91.133,283.491 91.206,284.082 91.295 M79.906 296.667 C 80.323 296.983,80.840 297.241,81.055 297.241 C 81.270 297.241,81.104 296.983,80.687 296.667 C 80.270 296.352,79.753 296.094,79.538 296.094 C 79.323 296.094,79.489 296.352,79.906 296.667 M91.234 304.089 C 91.651 304.405,92.168 304.663,92.383 304.663 C 92.598 304.663,92.432 304.405,92.015 304.089 C 91.598 303.774,91.081 303.516,90.866 303.516 C 90.651 303.516,90.817 303.774,91.234 304.089 " stroke="none" fill="#a79887" fill-rule="evenodd"></path></g></svg>