<svg id="svg" version="1.1" xmlns="http://www.w3.org/2000/svg" xmlns:xlink="http://www.w3.org/1999/xlink" width="400" height="400" viewBox="0, 0, 400,400"><g id="svgg"><path id="path0" d="M220.165 96.695 C 220.031 97.044,219.944 97.886,219.971 98.567 C 220.011 99.597,220.069 99.509,220.312 98.047 C 220.622 96.178,220.565 95.653,220.165 96.695 M166.699 96.770 C 167.612 96.853,169.106 96.853,170.020 96.770 C 170.933 96.688,170.186 96.621,168.359 96.621 C 166.533 96.621,165.786 96.688,166.699 96.770 M207.513 99.219 C 207.513 99.971,207.593 100.278,207.691 99.902 C 207.789 99.526,207.789 98.911,207.691 98.535 C 207.593 98.159,207.513 98.467,207.513 99.219 M180.469 99.189 C 182.150 100.146,181.936 100.186,179.524 99.364 C 172.625 97.014,156.647 100.998,149.646 106.814 C 147.216 108.833,145.313 110.678,145.313 111.015 C 145.313 111.218,145.590 111.106,145.930 110.766 C 146.539 110.157,147.470 110.291,147.074 110.931 C 146.962 111.113,147.054 111.323,147.279 111.398 C 147.537 111.484,147.452 112.009,147.046 112.821 C 146.326 114.266,146.205 118.462,146.878 118.686 C 147.149 118.776,147.166 118.986,146.926 119.276 C 146.660 119.597,146.879 119.738,147.687 119.768 L 148.821 119.809 147.802 118.865 C 146.557 117.712,146.611 114.829,147.927 112.169 C 148.369 111.277,148.576 110.547,148.388 110.547 C 148.201 110.547,148.047 110.752,148.047 111.003 C 148.047 111.253,147.945 111.356,147.820 111.231 C 147.695 111.107,147.802 110.614,148.057 110.137 C 148.433 109.434,148.595 109.372,148.907 109.811 C 149.207 110.231,149.243 110.199,149.072 109.667 C 148.734 108.618,153.573 104.232,154.945 104.344 C 155.077 104.355,155.322 104.144,155.488 103.875 C 155.654 103.606,156.421 103.410,157.192 103.439 C 157.963 103.468,158.594 103.338,158.594 103.150 C 158.594 102.961,158.198 102.894,157.715 103.000 C 157.002 103.156,156.947 103.112,157.422 102.764 C 157.749 102.525,158.637 102.436,159.433 102.562 C 160.216 102.687,160.958 102.627,161.081 102.428 C 161.205 102.228,160.830 102.132,160.242 102.214 C 159.224 102.356,159.233 102.334,160.473 101.685 C 161.594 101.098,161.815 101.084,162.127 101.578 C 162.373 101.967,162.490 101.993,162.494 101.660 C 162.497 101.392,162.808 101.186,163.184 101.203 C 163.592 101.221,163.671 101.313,163.379 101.431 C 163.110 101.539,162.891 101.887,162.891 102.204 C 162.891 102.521,162.729 102.681,162.531 102.559 C 162.334 102.436,161.933 102.576,161.640 102.869 C 161.198 103.311,158.325 104.031,156.836 104.074 C 156.621 104.080,155.519 104.660,154.387 105.363 C 153.255 106.066,152.243 106.641,152.137 106.641 C 151.780 106.641,149.609 108.721,149.609 109.064 C 149.609 109.252,149.829 109.221,150.098 108.995 C 160.556 100.199,171.130 104.627,162.500 114.188 C 161.710 115.063,161.163 116.058,161.205 116.543 C 161.256 117.136,161.219 117.182,161.079 116.699 C 160.814 115.788,160.740 115.808,158.646 117.341 C 157.651 118.070,155.693 119.027,154.297 119.468 C 152.900 119.908,152.084 120.278,152.483 120.291 C 152.934 120.304,153.130 120.516,153.002 120.850 C 152.837 121.282,153.079 121.322,154.230 121.055 C 155.019 120.872,155.815 120.718,155.999 120.712 C 156.183 120.707,156.236 120.448,156.116 120.137 C 155.971 119.759,156.087 119.643,156.465 119.788 C 157.330 120.120,156.807 121.058,155.462 121.586 C 155.073 121.739,155.167 121.823,155.749 121.844 C 156.685 121.877,156.605 123.047,155.668 123.047 C 155.046 123.047,154.632 124.328,154.594 126.367 L 154.565 127.930 154.408 126.465 C 154.322 125.659,154.130 125.001,153.981 125.003 C 153.576 125.008,152.725 127.012,152.964 127.399 C 153.275 127.903,152.568 127.802,152.031 127.266 C 151.667 126.901,151.563 126.944,151.563 127.461 C 151.563 127.826,151.406 128.125,151.214 128.125 C 151.023 128.125,150.747 128.599,150.601 129.179 C 150.394 130.005,150.260 130.111,149.979 129.667 C 149.700 129.225,149.620 129.291,149.615 129.968 C 149.611 130.577,149.435 130.768,149.023 130.610 C 148.687 130.481,148.438 130.602,148.438 130.896 C 148.438 131.273,148.323 131.292,147.999 130.968 C 147.503 130.472,146.373 130.754,146.705 131.291 C 146.824 131.483,146.628 131.641,146.270 131.641 C 145.867 131.641,145.701 131.429,145.833 131.083 C 145.951 130.777,145.794 130.316,145.485 130.059 C 145.085 129.728,144.922 129.719,144.922 130.030 C 144.922 130.271,144.736 130.469,144.508 130.469 C 144.281 130.469,144.203 130.293,144.336 130.078 C 144.702 129.486,144.161 129.611,143.500 130.272 C 143.155 130.618,143.005 131.217,143.134 131.737 C 143.254 132.221,143.251 132.397,143.128 132.129 C 143.005 131.860,142.674 131.641,142.394 131.641 C 142.113 131.641,141.908 131.340,141.938 130.972 C 142.064 129.413,140.647 130.000,140.389 131.614 C 140.244 132.520,139.918 133.203,139.630 133.203 C 139.353 133.203,138.848 133.310,138.509 133.440 C 138.103 133.596,137.891 133.462,137.891 133.050 C 137.891 132.704,137.703 132.422,137.474 132.422 C 137.244 132.422,137.160 132.746,137.285 133.142 C 137.411 133.538,137.238 134.461,136.901 135.193 L 136.288 136.523 136.529 134.570 C 136.661 133.496,136.831 132.266,136.906 131.836 C 137.313 129.493,137.453 127.219,137.145 127.941 C 136.186 130.195,135.811 135.709,136.465 137.951 C 137.336 140.937,137.213 141.736,136.294 139.063 C 135.832 137.719,135.621 137.380,135.731 138.157 C 135.828 138.841,136.448 140.801,137.108 142.513 C 138.189 145.317,138.963 146.693,141.108 149.623 L 141.787 150.550 143.257 149.676 C 154.396 143.057,163.609 141.577,176.434 144.349 C 177.668 144.616,177.675 144.609,177.949 142.719 C 178.333 140.067,180.550 133.403,182.009 130.513 C 182.680 129.183,183.123 127.921,182.992 127.709 C 182.861 127.498,182.965 127.373,183.223 127.432 C 183.481 127.491,183.780 127.295,183.889 126.996 C 184.021 126.632,183.921 126.556,183.584 126.764 C 183.253 126.969,183.178 126.919,183.365 126.616 C 183.521 126.365,183.785 126.244,183.953 126.348 C 184.121 126.452,185.016 125.491,185.942 124.213 C 187.937 121.459,192.344 117.232,195.215 115.319 C 197.585 113.739,197.632 113.551,196.191 111.417 C 193.019 106.716,189.027 103.148,183.867 100.404 C 180.838 98.792,177.972 97.768,180.469 99.189 M140.796 100.488 L 139.648 101.758 140.918 100.611 C 142.101 99.541,142.367 99.219,142.065 99.219 C 141.998 99.219,141.427 99.790,140.796 100.488 M163.477 103.516 C 162.401 103.978,162.019 103.978,162.305 103.516 C 162.437 103.301,162.931 103.137,163.402 103.152 C 164.227 103.179,164.230 103.192,163.477 103.516 M145.874 105.176 L 144.727 106.445 145.996 105.298 C 147.179 104.229,147.445 103.906,147.143 103.906 C 147.076 103.906,146.505 104.478,145.874 105.176 M213.375 107.026 C 213.109 107.453,212.891 107.854,212.891 107.918 C 212.891 107.981,214.165 107.966,215.723 107.883 C 219.084 107.705,220.402 106.972,217.181 107.072 C 214.077 107.168,213.724 107.112,214.453 106.641 C 214.973 106.305,214.973 106.261,214.449 106.256 C 214.125 106.253,213.642 106.599,213.375 107.026 M252.978 108.431 C 248.202 109.493,241.602 112.464,241.602 113.552 C 241.602 113.778,242.832 114.789,244.336 115.799 C 249.162 119.041,255.398 126.390,257.655 131.494 C 258.766 134.006,258.261 133.965,262.410 131.882 C 269.862 128.140,276.814 126.640,284.473 127.122 C 289.207 127.419,289.108 127.500,287.691 124.522 C 282.047 112.662,266.453 105.433,252.978 108.431 M144.000 112.366 C 143.676 112.977,142.995 113.916,142.487 114.453 C 141.669 115.319,140.220 118.289,140.243 119.051 C 140.248 119.208,140.821 118.281,141.516 116.992 C 142.211 115.703,143.286 113.984,143.905 113.173 C 144.524 112.361,144.931 111.598,144.810 111.477 C 144.688 111.355,144.324 111.755,144.000 112.366 M123.730 112.392 C 124.429 112.479,125.571 112.479,126.270 112.392 C 126.968 112.305,126.396 112.234,125.000 112.234 C 123.604 112.234,123.032 112.305,123.730 112.392 M138.457 114.492 C 137.902 115.588,137.513 116.549,137.593 116.629 C 137.673 116.710,138.210 115.813,138.787 114.638 C 139.364 113.462,139.752 112.500,139.651 112.500 C 139.549 112.500,139.012 113.396,138.457 114.492 M214.746 115.119 C 215.229 115.213,216.021 115.213,216.504 115.119 C 216.987 115.026,216.592 114.950,215.625 114.950 C 214.658 114.950,214.263 115.026,214.746 115.119 M226.563 115.766 C 227.848 116.260,227.746 116.280,224.856 116.099 C 217.010 115.608,208.156 118.597,200.586 124.291 C 193.678 129.487,189.728 135.226,186.925 144.141 C 186.188 146.483,185.814 148.703,185.654 151.679 C 185.447 155.545,185.109 156.498,184.655 154.492 C 184.558 154.063,184.560 154.502,184.660 155.469 C 184.953 158.311,186.720 163.508,187.171 162.855 C 187.449 162.452,187.487 162.534,187.311 163.161 C 186.279 166.842,196.707 177.935,204.631 181.588 C 233.057 194.690,263.464 166.858,252.710 137.580 C 248.665 126.564,237.638 117.236,226.563 115.460 L 225.195 115.241 226.563 115.766 M144.826 116.992 C 144.724 117.529,144.791 117.969,144.976 117.969 C 145.161 117.969,145.313 117.529,145.313 116.992 C 145.313 116.455,145.245 116.016,145.163 116.016 C 145.080 116.016,144.929 116.455,144.826 116.992 M203.418 118.192 C 201.903 119.014,202.075 119.297,203.613 118.515 C 205.086 117.766,205.346 117.572,204.850 117.594 C 204.653 117.602,204.009 117.872,203.418 118.192 M141.016 119.313 C 141.016 119.622,141.191 119.984,141.406 120.117 C 141.621 120.250,141.797 119.997,141.797 119.554 C 141.797 119.112,141.621 118.750,141.406 118.750 C 141.191 118.750,141.016 119.003,141.016 119.313 M121.391 119.417 C 121.877 119.510,122.580 119.507,122.954 119.409 C 123.327 119.311,122.930 119.235,122.070 119.239 C 121.211 119.243,120.905 119.323,121.391 119.417 M126.855 119.416 C 127.339 119.509,128.130 119.509,128.613 119.416 C 129.097 119.323,128.701 119.247,127.734 119.247 C 126.768 119.247,126.372 119.323,126.855 119.416 M149.545 120.264 C 149.832 120.446,150.039 120.747,150.004 120.932 C 149.970 121.118,150.155 121.341,150.416 121.428 C 150.688 121.518,150.774 121.398,150.617 121.144 C 150.467 120.902,150.575 120.700,150.856 120.697 C 151.227 120.693,151.207 120.588,150.781 120.313 C 150.459 120.104,149.932 119.934,149.609 119.934 C 149.139 119.934,149.126 119.999,149.545 120.264 M155.078 120.313 C 155.078 120.527,154.716 120.703,154.274 120.703 C 153.831 120.703,153.578 120.527,153.711 120.313 C 153.844 120.098,154.206 119.922,154.515 119.922 C 154.825 119.922,155.078 120.098,155.078 120.313 M146.966 120.924 C 147.427 121.385,146.240 122.213,145.271 122.107 C 144.416 122.014,144.334 122.150,144.313 123.698 C 144.286 125.680,144.428 125.805,144.963 124.269 C 145.187 123.627,145.930 122.838,146.700 122.423 C 148.211 121.609,148.352 121.295,147.375 120.920 C 147.006 120.778,146.822 120.780,146.966 120.924 M125.955 121.393 C 125.153 121.952,123.728 125.122,124.395 124.866 C 125.151 124.576,125.171 124.885,124.442 125.614 C 123.719 126.336,123.403 126.325,123.687 125.586 C 123.829 125.215,123.681 125.000,123.284 125.000 C 122.181 125.000,122.428 127.724,123.535 127.773 C 124.396 127.811,124.395 127.818,123.473 128.075 C 122.469 128.356,122.308 128.826,122.220 131.730 C 122.189 132.746,122.024 133.491,121.854 133.385 C 121.683 133.280,121.455 133.503,121.347 133.882 C 121.238 134.261,121.242 133.925,121.355 133.136 C 121.688 130.805,121.188 129.214,120.219 129.522 C 119.586 129.723,119.465 129.642,119.655 129.147 C 119.832 128.685,119.670 128.516,119.050 128.516 C 118.391 128.516,118.307 128.620,118.672 128.984 C 119.346 129.659,119.249 133.423,118.522 134.830 C 116.135 139.445,108.716 143.514,105.029 142.229 C 104.076 141.897,103.693 141.900,103.482 142.243 C 103.314 142.513,103.178 142.318,103.145 141.759 C 102.948 138.386,102.970 137.192,103.245 136.328 C 103.548 135.376,103.540 135.371,102.919 136.133 C 102.425 136.738,102.335 137.398,102.517 139.063 C 102.856 142.150,102.829 142.669,102.313 142.988 C 102.060 143.144,101.973 143.465,102.119 143.702 C 102.286 143.972,102.160 144.045,101.780 143.900 C 101.448 143.772,101.274 143.511,101.392 143.318 C 101.511 143.126,101.422 142.969,101.195 142.969 C 100.612 142.969,100.681 143.382,101.396 144.172 C 101.959 144.795,101.943 144.872,101.200 145.108 C 100.706 145.265,100.391 145.697,100.393 146.218 C 100.394 147.032,100.434 147.023,101.271 146.008 C 103.560 143.238,106.768 144.285,105.906 147.521 C 105.574 148.769,103.455 150.391,102.157 150.391 C 101.201 150.391,100.158 148.825,100.508 147.915 C 100.982 146.677,99.329 145.874,98.459 146.919 L 97.682 147.852 97.669 146.559 C 97.662 145.799,97.495 145.366,97.266 145.508 C 97.051 145.641,96.875 146.477,96.875 147.367 C 96.875 148.618,96.770 148.879,96.410 148.519 C 96.050 148.159,96.059 147.606,96.452 146.074 C 96.731 144.985,96.872 144.007,96.766 143.901 C 96.497 143.632,95.313 147.208,95.313 148.289 C 95.313 148.775,95.163 149.265,94.979 149.379 C 94.421 149.724,93.560 155.469,93.557 158.872 C 93.556 160.637,93.435 161.779,93.289 161.411 C 92.696 159.917,93.019 161.744,93.696 163.710 C 95.274 168.296,98.462 173.403,101.678 176.495 L 103.029 177.795 105.170 176.587 C 110.036 173.841,116.709 172.266,123.478 172.266 C 126.461 172.266,127.013 172.165,127.214 171.582 C 129.029 166.328,131.656 161.533,134.814 157.707 L 136.674 155.453 134.991 152.994 C 133.247 150.447,130.705 145.414,130.253 143.614 C 130.111 143.047,129.882 142.653,129.743 142.739 C 129.605 142.824,129.477 142.428,129.458 141.857 C 129.439 141.287,129.111 139.150,128.729 137.109 C 128.066 133.567,128.056 127.522,128.705 122.656 C 128.858 121.510,128.832 121.447,128.545 122.266 C 128.203 123.241,128.203 123.240,128.119 122.070 C 128.068 121.367,127.963 121.172,127.856 121.582 C 127.757 121.958,127.520 122.266,127.327 122.266 C 127.135 122.266,127.079 122.002,127.202 121.680 C 127.439 121.062,126.680 120.888,125.955 121.393 M123.438 122.656 C 123.438 122.871,122.954 123.067,122.363 123.092 C 121.702 123.120,121.552 123.206,121.973 123.316 C 122.349 123.414,122.656 123.746,122.656 124.052 C 122.656 124.907,123.278 124.716,123.979 123.647 C 124.758 122.457,124.764 122.266,124.023 122.266 C 123.701 122.266,123.438 122.441,123.438 122.656 M214.448 123.629 C 219.394 128.104,210.176 139.063,201.466 139.063 C 194.821 139.063,196.478 129.069,203.845 124.714 C 207.559 122.518,212.646 121.998,214.448 123.629 M116.797 123.438 C 116.323 123.744,116.379 123.817,117.090 123.822 C 117.573 123.825,117.969 123.652,117.969 123.438 C 117.969 122.948,117.554 122.948,116.797 123.438 M126.127 126.074 C 126.086 127.739,125.976 128.881,125.883 128.611 C 125.790 128.341,125.554 128.219,125.357 128.341 C 125.161 128.462,125.000 128.386,125.000 128.171 C 125.000 127.956,125.184 127.667,125.410 127.527 C 125.685 127.357,125.653 127.073,125.312 126.660 C 124.902 126.163,124.900 126.013,125.304 125.877 C 125.648 125.761,125.725 125.295,125.553 124.378 C 125.387 123.491,125.453 123.047,125.753 123.047 C 126.058 123.047,126.178 124.011,126.127 126.074 M127.344 124.023 C 127.344 124.561,127.168 125.000,126.953 125.000 C 126.738 125.000,126.563 124.561,126.563 124.023 C 126.563 123.486,126.738 123.047,126.953 123.047 C 127.168 123.047,127.344 123.486,127.344 124.023 M96.264 124.707 L 95.117 125.977 96.387 124.829 C 97.085 124.198,97.656 123.627,97.656 123.560 C 97.656 123.258,97.334 123.524,96.264 124.707 M128.004 125.684 C 127.905 126.060,127.825 125.752,127.825 125.000 C 127.825 124.248,127.905 123.940,128.004 124.316 C 128.102 124.692,128.102 125.308,128.004 125.684 M137.760 124.870 C 137.617 125.013,137.511 125.496,137.525 125.944 C 137.548 126.692,137.580 126.682,137.924 125.822 C 138.306 124.866,138.227 124.403,137.760 124.870 M102.821 128.027 C 99.776 131.016,99.772 131.023,102.505 128.540 C 104.028 127.157,105.531 125.794,105.845 125.512 C 106.160 125.231,106.302 125.000,106.162 125.000 C 106.021 125.000,104.518 126.362,102.821 128.027 M115.262 125.335 C 115.246 125.641,114.987 125.770,114.648 125.640 C 114.326 125.516,114.063 125.566,114.063 125.750 C 114.063 126.092,116.753 126.737,117.028 126.462 C 117.111 126.378,116.923 125.971,116.610 125.557 C 116.050 124.817,116.040 124.818,116.001 125.586 L 115.961 126.367 115.625 125.586 C 115.440 125.156,115.277 125.043,115.262 125.335 M111.133 126.268 C 110.488 126.737,109.873 127.217,109.766 127.334 C 109.658 127.451,108.828 128.027,107.922 128.615 C 106.723 129.391,106.333 129.871,106.494 130.369 C 106.676 130.937,106.644 130.955,106.306 130.477 C 105.970 130.001,105.588 130.239,104.121 131.836 C 102.353 133.762,101.580 135.483,103.003 134.325 C 103.580 133.856,103.630 133.874,103.406 134.473 C 103.265 134.849,103.320 135.156,103.528 135.156 C 103.736 135.156,103.906 134.893,103.906 134.570 C 103.906 134.248,104.040 133.984,104.203 133.984 C 104.366 133.984,104.715 133.639,104.978 133.218 C 105.387 132.564,105.365 132.486,104.832 132.691 C 104.285 132.901,104.269 132.813,104.708 131.994 C 105.009 131.430,105.274 131.251,105.371 131.544 C 105.614 132.272,105.976 132.150,107.436 130.847 C 109.913 128.635,112.517 127.647,115.507 127.784 C 118.214 127.907,119.145 127.663,119.135 126.832 C 119.130 126.479,119.057 126.481,118.828 126.840 C 118.614 127.176,117.708 127.244,115.684 127.074 C 113.906 126.925,113.032 126.711,113.353 126.504 C 113.769 126.235,113.756 126.099,113.281 125.787 C 112.506 125.278,112.488 125.282,111.133 126.268 M134.856 127.344 C 134.856 128.096,134.937 128.403,135.035 128.027 C 135.133 127.651,135.133 127.036,135.035 126.660 C 134.937 126.284,134.856 126.592,134.856 127.344 M112.500 126.943 C 112.500 127.153,111.720 127.680,110.766 128.114 C 109.812 128.549,108.923 129.080,108.790 129.296 C 108.657 129.511,108.345 129.688,108.096 129.688 C 107.451 129.688,108.643 128.577,110.417 127.524 C 112.125 126.511,112.500 126.406,112.500 126.943 M127.632 132.520 C 127.553 133.647,127.488 132.725,127.488 130.469 C 127.488 128.213,127.553 127.290,127.632 128.418 C 127.711 129.546,127.711 131.392,127.632 132.520 M121.094 132.054 C 121.094 132.471,120.962 132.813,120.801 132.813 C 120.640 132.813,120.508 132.390,120.508 131.873 C 120.508 131.357,120.640 131.015,120.801 131.115 C 120.962 131.215,121.094 131.637,121.094 132.054 M134.856 133.203 C 134.856 133.955,134.937 134.263,135.035 133.887 C 135.133 133.511,135.133 132.896,135.035 132.520 C 134.937 132.144,134.856 132.451,134.856 133.203 M277.344 134.007 C 273.849 134.401,270.364 135.558,264.914 138.134 L 260.884 140.039 261.204 142.969 C 262.403 153.951,260.673 162.921,255.740 171.299 L 254.406 173.565 257.183 175.779 C 264.142 181.326,269.394 188.987,271.112 196.094 C 271.821 199.025,271.861 199.059,275.758 199.974 C 301.326 205.976,322.584 178.109,311.454 153.181 C 308.910 147.483,300.466 138.245,298.764 139.297 C 298.493 139.465,298.423 139.401,298.588 139.135 C 298.896 138.636,294.683 136.402,291.602 135.431 C 287.167 134.034,281.836 133.502,277.344 134.007 M137.881 136.943 C 137.237 138.895,137.082 138.446,137.600 136.128 C 137.840 135.056,138.104 134.489,138.188 134.866 C 138.271 135.244,138.133 136.179,137.881 136.943 M291.016 135.946 C 291.016 136.116,290.664 136.163,290.234 136.051 C 289.805 135.938,289.453 135.708,289.453 135.538 C 289.453 135.368,289.805 135.321,290.234 135.434 C 290.664 135.546,291.016 135.777,291.016 135.946 M100.242 136.507 C 99.554 137.556,99.556 137.569,100.357 137.315 C 100.977 137.119,101.175 137.227,101.184 137.767 C 101.195 138.441,101.217 138.440,101.620 137.746 C 101.888 137.285,101.905 136.926,101.667 136.770 C 101.459 136.634,101.211 136.280,101.115 135.982 C 100.995 135.609,100.723 135.773,100.242 136.507 M99.102 138.548 C 98.186 140.045,96.904 142.737,97.042 142.875 C 97.370 143.203,98.047 142.528,98.048 141.871 C 98.049 141.508,98.410 140.620,98.851 139.897 C 99.291 139.175,99.572 138.504,99.474 138.407 C 99.377 138.309,99.209 138.373,99.102 138.548 M100.618 139.453 C 100.908 140.541,101.093 140.834,101.335 140.592 C 101.425 140.502,101.242 139.989,100.928 139.453 L 100.358 138.477 100.618 139.453 M200.098 141.717 C 201.682 143.088,200.291 146.816,197.712 148.112 C 195.086 149.431,192.857 147.322,193.826 144.434 C 194.880 141.289,198.027 139.926,200.098 141.717 M112.657 141.952 C 112.542 142.252,111.931 142.596,111.299 142.717 C 110.668 142.838,109.845 143.018,109.470 143.118 C 109.096 143.218,108.559 143.313,108.278 143.329 C 107.996 143.346,107.875 143.535,108.008 143.750 C 108.141 143.965,107.965 144.141,107.617 144.141 C 107.270 144.141,107.087 143.976,107.211 143.775 C 107.335 143.574,106.862 143.339,106.160 143.252 C 105.076 143.118,105.149 143.080,106.641 143.005 C 107.607 142.957,109.365 142.589,110.547 142.188 C 111.729 141.786,112.734 141.446,112.781 141.432 C 112.828 141.418,112.772 141.652,112.657 141.952 M184.118 149.414 C 184.120 151.133,184.188 151.787,184.271 150.869 C 184.353 149.950,184.352 148.544,184.268 147.744 C 184.184 146.944,184.117 147.695,184.118 149.414 M106.250 149.609 C 106.020 150.039,105.618 150.377,105.357 150.360 C 105.000 150.337,105.003 150.280,105.371 150.132 C 105.640 150.024,105.859 149.686,105.859 149.382 C 105.859 149.077,106.041 148.828,106.264 148.828 C 106.538 148.828,106.533 149.080,106.250 149.609 M96.094 150.218 C 96.094 150.553,95.918 150.719,95.703 150.586 C 95.488 150.453,95.292 150.750,95.267 151.246 C 95.232 151.938,95.179 151.984,95.040 151.446 C 94.939 151.060,95.069 150.488,95.328 150.177 C 95.929 149.453,96.094 149.462,96.094 150.218 M164.563 149.897 C 165.590 149.978,167.172 149.977,168.078 149.895 C 168.985 149.813,168.145 149.747,166.211 149.748 C 164.277 149.749,163.536 149.816,164.563 149.897 M91.922 152.734 C 91.922 154.131,91.993 154.702,92.079 154.004 C 92.166 153.306,92.166 152.163,92.079 151.465 C 91.993 150.767,91.922 151.338,91.922 152.734 M175.906 151.287 C 176.842 151.687,176.254 151.758,172.000 151.758 C 166.078 151.758,161.193 152.911,155.078 155.752 C 140.635 162.464,131.066 179.203,133.692 193.164 L 133.986 194.727 133.440 193.164 C 132.704 191.058,132.680 191.759,133.394 194.514 C 138.909 215.799,166.807 224.860,184.749 211.194 C 190.799 206.585,192.898 203.947,193.757 199.870 C 194.541 196.155,195.275 193.931,197.109 189.727 C 198.763 185.935,198.863 186.411,196.020 184.570 C 193.352 182.844,187.457 177.254,185.698 174.783 C 185.078 173.912,184.465 173.209,184.337 173.221 C 183.664 173.283,182.818 172.082,183.041 171.380 C 183.219 170.818,183.151 170.689,182.794 170.910 C 182.480 171.104,182.399 171.056,182.570 170.779 C 182.718 170.540,182.331 169.326,181.709 168.082 C 179.680 164.024,177.821 157.204,177.672 153.273 C 177.616 151.786,177.451 151.436,176.668 151.138 C 175.281 150.610,174.624 150.739,175.906 151.287 M142.174 159.668 L 140.039 161.914 142.285 159.779 C 144.372 157.795,144.710 157.422,144.420 157.422 C 144.359 157.422,143.348 158.433,142.174 159.668 M159.142 159.429 C 161.464 160.487,161.924 164.022,160.172 167.353 C 159.536 168.561,159.113 169.854,159.232 170.224 C 159.405 170.763,159.370 170.787,159.056 170.346 C 158.734 169.892,158.429 170.011,157.359 171.009 C 154.897 173.305,154.170 173.833,152.014 174.888 C 145.898 177.880,141.830 174.429,144.154 168.219 C 146.363 162.314,154.719 157.414,159.142 159.429 M148.258 161.302 C 148.117 161.531,147.753 161.719,147.450 161.719 C 147.137 161.719,146.991 161.956,147.111 162.269 C 147.336 162.855,145.849 163.558,145.381 163.088 C 145.050 162.756,146.772 161.328,147.504 161.328 C 147.803 161.328,148.047 161.123,148.047 160.872 C 148.047 160.622,148.152 160.522,148.281 160.651 C 148.410 160.780,148.400 161.073,148.258 161.302 M144.141 166.500 C 144.141 166.947,143.444 166.856,143.289 166.389 C 143.214 166.165,142.760 166.348,142.279 166.795 C 141.238 167.765,141.141 167.491,142.084 166.241 C 142.732 165.382,144.141 165.559,144.141 166.500 M135.723 168.396 C 135.380 169.060,135.168 169.673,135.253 169.758 C 135.338 169.843,135.699 169.299,136.056 168.550 C 136.860 166.865,136.581 166.736,135.723 168.396 M141.555 168.575 C 141.704 168.963,141.630 169.083,141.348 168.909 C 141.035 168.716,140.982 169.076,141.165 170.158 C 141.365 171.339,141.328 171.525,141.000 170.988 C 140.767 170.607,140.412 170.398,140.210 170.523 C 139.628 170.882,139.785 169.789,140.452 168.837 C 141.175 167.805,141.253 167.786,141.555 168.575 M321.184 169.531 C 321.184 170.283,321.265 170.591,321.363 170.215 C 321.461 169.839,321.461 169.224,321.363 168.848 C 321.265 168.472,321.184 168.779,321.184 169.531 M137.222 175.781 C 137.335 176.210,137.267 176.660,137.073 176.780 C 136.878 176.901,136.719 176.549,136.719 176.000 C 136.719 174.803,136.941 174.706,137.222 175.781 M146.680 176.563 C 147.675 176.990,146.648 176.990,145.313 176.563 C 144.527 176.311,144.489 176.247,145.117 176.238 C 145.547 176.232,146.250 176.378,146.680 176.563 M146.638 177.962 C 147.780 180.939,144.429 184.608,142.411 182.589 C 140.765 180.943,142.455 177.344,144.874 177.344 C 145.906 177.344,146.478 177.544,146.638 177.962 M120.313 179.147 C 122.611 179.439,125.782 179.469,125.782 179.199 C 125.781 179.038,124.331 178.933,122.559 178.965 C 120.786 178.997,119.775 179.079,120.313 179.147 M247.792 180.731 C 237.513 190.212,220.732 194.175,208.186 190.085 L 205.405 189.179 204.393 190.781 C 190.962 212.031,205.908 239.923,231.253 240.905 C 264.402 242.190,278.895 198.697,251.483 180.197 L 249.686 178.984 247.792 180.731 M132.138 181.641 C 132.138 182.607,132.214 183.003,132.307 182.520 C 132.400 182.036,132.400 181.245,132.307 180.762 C 132.214 180.278,132.138 180.674,132.138 181.641 M124.414 181.556 C 119.418 182.352,109.766 185.817,109.766 186.816 C 109.766 187.268,109.983 187.190,111.995 186.018 C 113.813 184.957,117.880 183.765,118.288 184.173 C 118.399 184.284,118.274 184.375,118.011 184.375 C 117.747 184.375,117.653 184.570,117.800 184.809 C 118.257 185.547,117.073 185.955,116.356 185.306 C 115.980 184.966,115.605 184.873,115.473 185.087 C 115.346 185.291,115.512 185.681,115.840 185.954 C 116.362 186.387,116.300 186.539,115.347 187.167 C 114.748 187.562,114.478 187.887,114.746 187.888 C 115.015 187.889,115.234 188.088,115.234 188.329 C 115.234 188.652,115.096 188.652,114.710 188.332 C 114.422 188.093,114.105 187.940,114.006 187.992 C 113.907 188.044,114.241 187.690,114.747 187.207 L 115.669 186.328 114.433 186.328 C 113.524 186.328,113.254 186.475,113.412 186.886 C 113.687 187.604,113.098 188.029,110.997 188.631 C 110.063 188.898,109.380 189.197,109.478 189.296 C 109.577 189.394,110.161 189.283,110.777 189.049 C 118.169 186.239,120.118 194.969,113.513 201.304 C 106.047 208.465,98.246 206.491,101.416 198.242 C 101.746 197.383,102.084 196.240,102.166 195.703 C 102.256 195.116,102.226 195.027,102.092 195.480 C 101.660 196.939,100.888 197.347,100.674 196.229 C 100.490 195.268,101.567 193.586,102.116 193.978 C 102.241 194.067,102.263 194.031,102.165 193.897 C 101.994 193.664,104.499 191.016,104.890 191.016 C 105.358 191.016,104.787 192.078,103.809 193.024 C 103.218 193.596,102.734 194.283,102.734 194.552 C 102.734 194.847,103.006 194.746,103.418 194.298 C 103.794 193.889,104.933 192.808,105.948 191.895 C 107.767 190.260,107.997 189.680,106.377 190.815 C 105.644 191.328,105.522 191.328,105.325 190.815 C 105.188 190.457,105.332 190.234,105.699 190.234 C 106.028 190.234,106.192 190.065,106.064 189.858 C 105.818 189.460,103.906 190.140,103.906 190.626 C 103.906 190.772,103.113 191.731,102.143 192.758 C 101.173 193.785,100.080 195.131,99.715 195.750 C 99.349 196.369,98.938 196.875,98.802 196.875 C 98.588 196.875,97.652 198.813,95.501 203.711 C 95.032 204.779,93.870 209.052,92.599 214.376 C 92.151 216.254,92.182 217.336,92.793 221.094 C 92.880 221.631,92.705 221.367,92.404 220.508 C 92.103 219.648,91.843 219.244,91.827 219.610 C 91.762 221.058,94.119 227.047,95.841 229.811 C 104.224 243.261,122.018 248.018,136.914 240.793 C 143.303 237.694,143.973 237.078,145.677 232.739 C 146.495 230.657,147.999 227.529,149.020 225.787 C 150.041 224.046,150.771 222.516,150.642 222.387 C 150.513 222.258,149.217 221.605,147.763 220.936 C 139.403 217.091,131.810 209.044,128.279 200.289 C 127.590 198.580,126.948 197.420,126.851 197.712 C 126.755 198.004,126.739 197.859,126.815 197.390 C 126.892 196.922,126.670 195.340,126.322 193.875 C 125.974 192.410,125.578 189.011,125.442 186.321 C 125.210 181.718,125.150 181.439,124.414 181.556 M124.894 186.621 C 124.810 187.427,124.741 186.768,124.741 185.156 C 124.741 183.545,124.810 182.886,124.894 183.691 C 124.978 184.497,124.978 185.815,124.894 186.621 M122.266 183.203 C 121.943 183.411,121.152 183.582,120.508 183.582 C 119.609 183.582,119.472 183.494,119.922 183.203 C 120.244 182.995,121.035 182.824,121.680 182.824 C 122.579 182.824,122.715 182.913,122.266 183.203 M100.768 188.574 L 98.633 190.820 100.879 188.685 C 102.966 186.702,103.304 186.328,103.014 186.328 C 102.953 186.328,101.942 187.339,100.768 188.574 M132.122 187.891 C 132.122 188.643,132.202 188.950,132.301 188.574 C 132.399 188.198,132.399 187.583,132.301 187.207 C 132.202 186.831,132.122 187.139,132.122 187.891 M117.578 187.542 C 117.578 187.780,117.842 187.873,118.164 187.749 C 118.821 187.497,118.907 187.820,118.395 188.627 C 118.123 189.057,117.958 188.991,117.589 188.302 C 117.146 187.474,117.092 187.466,116.375 188.114 C 115.717 188.710,115.625 188.717,115.625 188.175 C 115.625 187.642,116.125 187.334,117.285 187.155 C 117.446 187.130,117.578 187.304,117.578 187.542 M100.397 198.795 L 99.991 199.805 100.172 198.828 C 100.336 197.939,100.305 197.914,99.831 198.547 C 99.382 199.147,99.280 199.161,99.082 198.644 C 98.956 198.316,99.004 198.047,99.189 198.047 C 99.373 198.047,99.651 197.563,99.804 196.973 L 100.084 195.898 100.444 196.842 C 100.672 197.441,100.656 198.153,100.397 198.795 M102.960 206.295 C 103.588 206.333,103.603 206.369,103.048 206.515 C 102.246 206.727,100.781 206.002,100.781 205.394 C 100.781 205.148,101.093 205.239,101.496 205.604 C 101.888 205.959,102.548 206.270,102.960 206.295 M292.627 206.437 C 287.963 207.912,280.408 208.074,275.261 206.809 C 274.009 206.502,272.910 206.250,272.820 206.250 C 272.730 206.250,272.656 207.261,272.655 208.496 C 272.646 220.929,265.517 234.088,255.091 240.919 C 253.258 242.120,251.612 243.227,251.433 243.380 C 250.007 244.598,257.063 251.982,261.819 254.250 C 288.184 266.821,313.782 234.541,297.714 208.984 C 295.694 205.772,295.322 205.585,292.627 206.437 M103.907 209.377 C 104.482 210.451,103.731 213.139,102.702 213.689 C 99.684 215.304,97.739 211.096,100.668 209.288 C 102.126 208.387,103.396 208.422,103.907 209.377 M91.156 212.500 C 91.156 214.541,91.222 215.376,91.303 214.355 C 91.383 213.335,91.383 211.665,91.303 210.645 C 91.222 209.624,91.156 210.459,91.156 212.500 M190.366 215.337 C 183.110 221.504,174.967 224.330,164.305 224.383 L 158.102 224.414 155.830 227.734 C 144.617 244.127,149.931 266.409,167.188 275.354 C 188.459 286.381,214.258 272.031,216.257 248.059 L 216.505 245.085 213.233 243.188 C 202.551 236.996,195.614 227.358,193.667 216.005 C 193.110 212.757,193.347 212.805,190.366 215.337 M155.556 229.662 C 155.194 230.293,154.826 230.738,154.740 230.651 C 154.568 230.480,155.770 228.516,156.046 228.516 C 156.138 228.516,155.918 229.032,155.556 229.662 M168.027 229.719 C 171.580 231.620,169.482 239.821,164.837 242.191 C 160.749 244.276,158.112 242.626,158.154 238.012 C 158.207 232.294,163.902 227.511,168.027 229.719 M138.820 247.254 C 134.508 249.448,131.001 250.369,124.805 250.937 L 120.117 251.367 118.837 253.788 C 107.630 274.979,126.292 300.895,149.230 295.995 C 150.470 295.730,150.722 295.440,151.734 293.117 C 153.107 289.965,156.089 285.328,158.645 282.369 C 160.835 279.834,160.877 279.679,159.595 278.899 C 150.924 273.629,143.959 260.905,143.096 248.759 C 142.962 246.863,142.746 245.342,142.617 245.377 C 142.488 245.412,140.780 246.257,138.820 247.254 M162.707 247.033 C 163.257 247.873,163.261 248.120,162.742 249.363 C 161.694 251.871,158.203 251.711,158.203 249.155 C 158.203 246.517,161.387 245.018,162.707 247.033 M241.992 246.711 C 237.140 248.071,226.860 248.255,223.688 247.038 C 223.289 246.884,223.093 247.488,222.892 249.491 C 222.077 257.604,217.936 267.154,212.986 272.337 C 211.646 273.740,211.618 273.832,211.871 276.069 C 212.509 281.704,215.288 289.571,217.523 292.065 C 217.875 292.459,218.822 293.599,219.626 294.598 C 222.698 298.413,228.446 301.847,233.565 302.924 C 252.236 306.851,269.198 291.837,269.303 271.289 C 269.341 263.818,269.424 264.012,265.858 263.205 C 257.079 261.218,248.242 254.339,245.279 247.184 C 244.772 245.960,244.706 245.951,241.992 246.711 M276.297 271.094 C 276.297 272.490,276.368 273.062,276.454 272.363 C 276.541 271.665,276.541 270.522,276.454 269.824 C 276.368 269.126,276.297 269.697,276.297 271.094 M202.344 280.739 C 192.910 286.194,180.501 287.501,170.313 284.114 L 167.383 283.140 164.984 285.669 C 139.633 312.398,165.266 352.421,199.162 339.031 C 211.616 334.112,219.498 322.674,220.859 307.546 L 221.076 305.132 219.138 303.709 C 212.730 299.005,207.173 289.500,206.065 281.348 C 205.709 278.728,205.796 278.743,202.344 280.739 M119.124 293.457 C 120.743 295.182,121.094 295.492,121.094 295.199 C 121.094 295.136,120.259 294.301,119.238 293.343 L 117.383 291.602 119.124 293.457 M171.905 294.111 C 175.245 297.451,171.411 306.652,166.686 306.635 C 164.125 306.625,162.889 305.231,162.893 302.354 C 162.901 295.865,168.520 290.725,171.905 294.111 " stroke="none" fill="#783a7e" fill-rule="evenodd"></path><path id="path1" d="M0.000 200.000 L 0.000 400.000 200.000 400.000 L 400.000 400.000 400.000 200.000 L 400.000 0.000 200.000 0.000 L 0.000 0.000 0.000 200.000 M224.367 54.266 C 229.447 57.411,230.387 80.492,226.336 102.625 C 225.210 108.774,225.237 108.204,226.074 108.201 C 226.450 108.199,228.377 108.656,230.356 109.216 L 233.954 110.234 235.629 108.899 C 246.533 100.212,261.926 98.207,275.276 103.733 C 285.189 107.837,293.785 117.427,296.307 127.196 L 297.001 129.883 299.388 130.972 C 325.661 142.954,329.075 181.430,305.513 199.989 C 303.770 201.362,302.344 202.533,302.344 202.590 C 302.344 202.648,302.880 203.490,303.536 204.462 C 310.607 214.939,311.763 230.713,306.312 242.345 C 300.891 253.914,289.754 262.516,278.435 263.880 L 276.205 264.148 276.440 268.533 C 277.936 296.448,253.743 316.933,228.465 309.157 C 227.938 308.995,227.780 309.405,227.553 311.530 C 223.564 348.780,174.406 362.443,154.182 331.924 C 149.332 324.605,146.269 310.418,148.225 304.337 L 148.527 303.400 145.560 303.669 C 120.024 305.983,101.325 277.909,111.584 252.660 C 112.111 251.363,112.489 250.269,112.423 250.229 C 112.358 250.188,111.250 249.839,109.961 249.453 C 83.222 241.445,75.330 205.253,95.664 183.888 L 97.428 182.035 95.362 179.982 C 78.887 163.623,82.768 132.273,102.930 118.839 C 110.868 113.550,122.796 110.753,130.139 112.460 C 131.541 112.786,131.580 112.762,132.285 111.181 C 132.681 110.295,134.272 107.900,135.822 105.859 C 152.857 83.423,186.600 84.254,202.059 107.491 L 204.054 110.489 205.249 110.001 C 206.887 109.333,207.095 107.842,207.162 96.289 C 207.227 85.111,206.770 82.096,203.243 70.475 C 200.363 60.982,200.323 59.876,202.777 57.667 C 207.142 53.739,220.193 51.683,224.367 54.266 " stroke="none" fill="#fbfbfb" fill-rule="evenodd"></path><path id="path2" d="M215.234 53.491 C 208.808 54.394,203.311 56.592,201.943 58.805 C 200.825 60.615,200.974 62.041,202.937 68.309 C 207.344 82.382,208.362 90.211,207.436 102.933 C 207.171 106.584,206.918 109.609,206.875 109.655 C 206.831 109.702,206.165 110.004,205.393 110.327 L 203.991 110.913 202.024 107.898 C 185.620 82.760,145.602 84.536,132.806 110.970 L 131.939 112.760 126.898 112.578 C 91.454 111.298,71.506 154.367,95.652 180.039 L 97.636 182.148 95.373 184.567 C 75.667 205.633,83.819 241.246,110.179 249.252 C 112.425 249.935,112.889 250.210,112.670 250.729 C 101.708 276.674,117.041 303.066,143.200 303.279 L 148.313 303.320 148.278 309.570 C 148.161 330.061,161.061 345.356,180.916 348.268 C 203.060 351.515,225.257 333.850,227.212 311.426 C 227.347 309.868,227.523 308.594,227.601 308.594 C 227.680 308.594,229.016 308.962,230.571 309.413 C 247.250 314.244,266.470 304.038,273.409 286.665 C 275.587 281.212,275.951 279.007,275.964 271.191 L 275.977 264.061 277.344 263.837 C 300.626 260.014,314.562 237.762,307.966 214.940 C 306.965 211.477,304.453 206.064,302.905 204.035 C 301.830 202.625,301.728 202.123,302.460 201.842 C 303.816 201.322,309.223 196.568,311.517 193.880 C 329.172 173.188,321.555 139.878,296.963 130.231 C 296.904 130.208,296.504 128.920,296.074 127.368 C 288.999 101.838,257.522 92.726,234.953 109.675 C 233.818 110.528,233.708 110.538,232.015 109.962 C 231.048 109.632,229.118 109.126,227.726 108.837 C 226.025 108.484,225.211 108.134,225.243 107.769 C 225.270 107.471,225.654 105.117,226.097 102.539 C 229.093 85.108,229.268 62.746,226.452 57.031 C 224.987 54.058,220.739 52.717,215.234 53.491 M219.774 59.731 C 222.174 61.194,222.829 76.650,221.126 91.602 C 220.250 99.289,219.595 102.608,220.085 96.875 C 220.712 89.538,220.703 89.016,220.016 92.773 C 219.662 94.707,219.310 95.995,219.234 95.635 C 219.157 95.275,219.255 94.097,219.451 93.018 C 219.743 91.413,219.702 91.015,219.229 90.833 C 218.775 90.659,218.696 90.846,218.866 91.692 C 218.985 92.287,218.937 93.389,218.761 94.141 C 218.490 95.291,218.427 95.353,218.364 94.531 C 218.297 93.664,218.246 93.703,217.907 94.883 C 217.618 95.887,217.651 96.293,218.040 96.550 C 218.451 96.821,218.418 96.995,217.877 97.409 C 217.505 97.695,217.309 98.038,217.443 98.172 C 217.577 98.306,217.223 98.592,216.656 98.808 C 215.765 99.146,215.624 99.426,215.621 100.869 C 215.614 103.542,215.185 105.469,214.597 105.469 C 214.303 105.469,214.063 105.645,214.063 105.859 C 214.063 106.074,214.282 106.253,214.551 106.256 C 214.876 106.260,214.844 106.388,214.453 106.641 C 213.724 107.112,214.077 107.168,217.181 107.072 C 220.394 106.972,219.089 107.705,215.737 107.883 L 212.919 108.032 213.165 107.049 C 215.148 99.149,211.812 73.827,207.240 62.081 C 206.837 61.047,211.783 59.647,217.969 59.044 C 218.291 59.013,219.103 59.322,219.774 59.731 M214.961 98.047 C 214.961 99.229,215.034 99.712,215.124 99.121 C 215.213 98.530,215.213 97.563,215.124 96.973 C 215.034 96.382,214.961 96.865,214.961 98.047 M176.758 97.644 C 184.594 99.678,191.679 104.690,196.169 111.375 C 197.634 113.556,197.590 113.735,195.215 115.322 C 186.698 121.010,179.423 132.554,177.949 142.719 C 177.675 144.609,177.668 144.616,176.434 144.349 C 163.609 141.577,154.396 143.057,143.257 149.676 L 141.787 150.550 141.108 149.623 C 138.960 146.688,138.187 145.312,137.090 142.468 C 127.197 116.813,150.251 90.763,176.758 97.644 M269.038 109.084 C 276.847 111.459,284.482 117.779,287.691 124.522 C 289.108 127.500,289.207 127.419,284.473 127.122 C 276.814 126.640,269.862 128.140,262.410 131.882 C 258.261 133.965,258.766 134.006,257.655 131.494 C 255.398 126.390,249.162 119.041,244.336 115.799 C 241.076 113.609,241.047 113.468,243.555 111.989 C 250.530 107.874,261.102 106.669,269.038 109.084 M225.391 115.250 C 254.736 119.880,265.091 156.378,242.676 176.172 C 225.115 191.679,196.015 185.198,187.105 163.796 C 176.157 137.498,197.210 110.804,225.391 115.250 M129.297 119.535 C 129.297 119.753,129.015 121.642,128.671 123.735 C 127.011 133.835,129.378 144.796,134.991 152.994 L 136.674 155.453 134.814 157.707 C 131.656 161.533,129.029 166.328,127.214 171.582 C 127.013 172.165,126.461 172.266,123.478 172.266 C 116.709 172.266,110.036 173.841,105.170 176.587 L 103.029 177.795 101.678 176.495 C 84.808 160.272,91.063 129.932,113.025 121.455 C 118.286 119.425,129.297 118.126,129.297 119.535 M287.500 134.425 C 297.750 136.291,307.225 143.710,311.454 153.181 C 322.584 178.109,301.326 205.976,275.758 199.974 C 271.861 199.059,271.821 199.025,271.112 196.094 C 269.394 188.987,264.142 181.326,257.183 175.779 L 254.406 173.565 255.740 171.299 C 260.673 162.921,262.403 153.951,261.204 142.969 L 260.884 140.039 264.914 138.134 C 273.982 133.848,279.421 132.954,287.500 134.425 M172.293 150.242 C 177.559 151.146,177.593 151.165,177.672 153.273 C 178.099 164.551,186.075 178.163,196.011 184.570 C 198.865 186.411,198.763 185.934,197.109 189.727 C 195.275 193.931,194.541 196.155,193.757 199.870 C 192.898 203.947,190.799 206.585,184.749 211.194 C 168.473 223.591,143.100 217.390,134.981 199.030 C 123.672 173.459,145.012 145.555,172.293 150.242 M125.627 185.255 C 125.731 201.263,134.013 214.612,147.763 220.936 C 149.217 221.605,150.513 222.258,150.642 222.387 C 150.771 222.516,150.041 224.046,149.020 225.787 C 147.999 227.529,146.495 230.657,145.677 232.739 C 144.322 236.190,144.025 236.636,142.310 237.805 C 121.449 252.027,94.907 241.288,91.385 217.201 C 88.525 197.641,103.619 179.175,122.656 178.944 L 125.586 178.909 125.627 185.255 M255.986 183.962 C 274.575 201.499,265.676 233.759,240.499 240.109 C 212.056 247.281,188.781 215.483,204.393 190.781 L 205.405 189.179 208.186 190.085 C 220.732 194.175,237.513 190.212,247.792 180.731 L 249.686 178.984 251.483 180.197 C 252.471 180.864,254.497 182.558,255.986 183.962 M297.714 208.984 C 313.782 234.541,288.184 266.821,261.819 254.250 C 257.063 251.982,250.007 244.598,251.433 243.380 C 251.612 243.227,253.258 242.120,255.091 240.919 C 265.517 234.088,272.646 220.929,272.655 208.496 C 272.656 207.261,272.730 206.250,272.820 206.250 C 272.910 206.250,274.009 206.502,275.261 206.809 C 280.408 208.074,287.963 207.912,292.627 206.437 C 295.322 205.585,295.694 205.772,297.714 208.984 M193.667 216.005 C 195.614 227.358,202.551 236.996,213.233 243.188 L 216.505 245.085 216.257 248.059 C 214.258 272.031,188.459 286.381,167.188 275.354 C 149.931 266.409,144.617 244.127,155.830 227.734 L 158.102 224.414 164.305 224.383 C 174.967 224.330,183.110 221.504,190.366 215.337 C 193.347 212.805,193.110 212.757,193.667 216.005 M143.096 248.759 C 143.959 260.905,150.924 273.629,159.595 278.899 C 160.877 279.679,160.835 279.834,158.645 282.369 C 156.089 285.328,153.107 289.965,151.734 293.117 C 150.381 296.223,150.165 296.302,143.164 296.263 C 130.442 296.193,120.298 288.383,116.711 275.898 C 114.847 269.411,115.797 259.537,118.837 253.788 L 120.117 251.367 124.805 250.937 C 131.001 250.369,134.508 249.448,138.820 247.254 C 140.780 246.257,142.488 245.412,142.617 245.377 C 142.746 245.342,142.962 246.863,143.096 248.759 M245.279 247.184 C 248.242 254.339,257.079 261.218,265.858 263.205 C 269.424 264.012,269.341 263.818,269.303 271.289 C 269.198 291.837,252.236 306.851,233.565 302.924 C 228.446 301.847,222.698 298.413,219.626 294.598 C 218.822 293.599,217.875 292.459,217.523 292.065 C 215.288 289.571,212.509 281.704,211.871 276.069 C 211.618 273.832,211.646 273.740,212.986 272.337 C 217.936 267.154,222.077 257.604,222.892 249.491 C 223.093 247.488,223.289 246.884,223.688 247.038 C 226.860 248.255,237.140 248.071,241.992 246.711 C 244.706 245.951,244.772 245.960,245.279 247.184 M206.065 281.348 C 207.173 289.500,212.730 299.005,219.138 303.709 L 221.076 305.132 220.859 307.546 C 219.498 322.674,211.616 334.112,199.162 339.031 C 165.266 352.421,139.633 312.398,164.984 285.669 L 167.383 283.140 170.313 284.114 C 180.501 287.501,192.910 286.194,202.344 280.739 C 205.796 278.743,205.709 278.728,206.065 281.348 " stroke="none" fill="#48202a" fill-rule="evenodd"></path><path id="path3" d="M228.673 75.391 C 228.673 78.721,228.733 80.083,228.806 78.418 C 228.879 76.753,228.879 74.028,228.806 72.363 C 228.733 70.698,228.673 72.061,228.673 75.391 M166.699 89.739 C 167.612 89.821,169.106 89.821,170.020 89.739 C 170.933 89.657,170.186 89.590,168.359 89.590 C 166.533 89.590,165.786 89.657,166.699 89.739 M160.938 97.612 C 145.679 100.983,135.080 114.355,135.048 130.273 C 135.040 134.247,136.391 141.473,137.024 140.840 C 137.124 140.741,136.893 139.504,136.510 138.091 C 135.809 135.501,136.136 130.338,137.153 127.930 C 137.451 127.223,137.305 129.538,136.906 131.836 C 136.831 132.266,136.661 133.496,136.529 134.570 L 136.288 136.523 136.901 135.193 C 137.238 134.461,137.411 133.538,137.285 133.142 C 137.160 132.746,137.244 132.422,137.474 132.422 C 137.703 132.422,137.891 132.704,137.891 133.050 C 137.891 133.462,138.103 133.596,138.509 133.440 C 138.848 133.310,139.353 133.203,139.630 133.203 C 139.918 133.203,140.244 132.520,140.389 131.614 C 140.647 130.000,142.064 129.413,141.938 130.972 C 141.908 131.340,142.113 131.641,142.394 131.641 C 142.674 131.641,143.005 131.860,143.128 132.129 C 143.251 132.397,143.254 132.221,143.134 131.737 C 143.005 131.217,143.155 130.618,143.500 130.272 C 144.161 129.611,144.702 129.486,144.336 130.078 C 144.203 130.293,144.281 130.469,144.508 130.469 C 144.736 130.469,144.922 130.271,144.922 130.030 C 144.922 129.719,145.085 129.728,145.485 130.059 C 145.794 130.316,145.951 130.777,145.833 131.083 C 145.701 131.429,145.867 131.641,146.270 131.641 C 146.628 131.641,146.824 131.483,146.705 131.291 C 146.373 130.754,147.503 130.472,147.999 130.968 C 148.323 131.292,148.438 131.273,148.438 130.896 C 148.438 130.602,148.687 130.481,149.023 130.610 C 149.435 130.768,149.611 130.577,149.615 129.968 C 149.620 129.291,149.700 129.225,149.979 129.667 C 150.260 130.111,150.394 130.005,150.601 129.179 C 150.747 128.599,151.023 128.125,151.214 128.125 C 151.406 128.125,151.563 127.826,151.563 127.461 C 151.563 126.944,151.667 126.901,152.031 127.266 C 152.568 127.802,153.275 127.903,152.964 127.399 C 152.725 127.012,153.576 125.008,153.981 125.003 C 154.130 125.001,154.322 125.659,154.408 126.465 L 154.565 127.930 154.594 126.367 C 154.632 124.328,155.046 123.047,155.668 123.047 C 156.605 123.047,156.685 121.877,155.749 121.844 C 155.167 121.823,155.073 121.739,155.462 121.586 C 156.807 121.058,157.330 120.120,156.465 119.788 C 156.087 119.643,155.971 119.759,156.116 120.137 C 156.236 120.448,156.183 120.707,155.999 120.712 C 155.815 120.718,155.019 120.872,154.230 121.055 C 153.079 121.322,152.837 121.282,153.002 120.850 C 153.130 120.516,152.934 120.304,152.483 120.291 C 152.084 120.278,152.900 119.908,154.297 119.468 C 155.693 119.027,157.651 118.070,158.646 117.341 C 160.740 115.808,160.814 115.788,161.079 116.699 C 161.219 117.182,161.256 117.136,161.205 116.543 C 161.163 116.058,161.710 115.063,162.500 114.188 C 171.130 104.627,160.556 100.199,150.098 108.995 C 149.829 109.221,149.609 109.252,149.609 109.064 C 149.609 108.721,151.780 106.641,152.137 106.641 C 152.243 106.641,153.255 106.066,154.387 105.363 C 155.519 104.660,156.621 104.080,156.836 104.074 C 158.325 104.031,161.198 103.311,161.640 102.869 C 161.933 102.576,162.334 102.436,162.531 102.559 C 162.729 102.681,162.891 102.521,162.891 102.204 C 162.891 101.887,163.110 101.539,163.379 101.431 C 163.671 101.313,163.592 101.221,163.184 101.203 C 162.808 101.186,162.497 101.392,162.494 101.660 C 162.490 101.993,162.373 101.967,162.127 101.578 C 161.815 101.084,161.594 101.098,160.473 101.685 C 159.233 102.334,159.224 102.356,160.242 102.214 C 160.830 102.132,161.205 102.228,161.081 102.428 C 160.958 102.627,160.216 102.687,159.433 102.562 C 158.637 102.436,157.749 102.525,157.422 102.764 C 156.947 103.112,157.002 103.156,157.715 103.000 C 158.198 102.894,158.594 102.961,158.594 103.150 C 158.594 103.338,157.963 103.468,157.192 103.439 C 156.421 103.410,155.654 103.606,155.488 103.875 C 155.322 104.144,155.030 104.382,154.839 104.404 C 153.119 104.607,148.732 108.610,149.072 109.667 C 149.243 110.199,149.207 110.231,148.907 109.811 C 148.595 109.372,148.433 109.434,148.057 110.137 C 147.802 110.614,147.695 111.107,147.820 111.231 C 147.945 111.356,148.047 111.253,148.047 111.003 C 148.047 110.752,148.201 110.547,148.388 110.547 C 148.576 110.547,148.369 111.277,147.927 112.169 C 146.611 114.829,146.557 117.712,147.802 118.865 L 148.821 119.809 147.687 119.768 C 146.879 119.738,146.660 119.597,146.926 119.276 C 147.166 118.986,147.149 118.776,146.878 118.686 C 146.205 118.462,146.326 114.266,147.046 112.821 C 147.452 112.009,147.537 111.484,147.279 111.398 C 147.054 111.323,146.962 111.113,147.074 110.931 C 147.470 110.291,146.539 110.157,145.930 110.766 C 145.590 111.106,145.313 111.218,145.313 111.015 C 145.313 110.678,147.216 108.833,149.646 106.814 C 156.647 100.998,172.625 97.014,179.524 99.364 C 181.796 100.139,182.142 100.150,180.859 99.407 C 176.830 97.074,167.268 96.213,160.938 97.612 M196.680 101.172 C 197.738 102.246,198.691 103.125,198.799 103.125 C 198.906 103.125,198.128 102.246,197.070 101.172 C 196.012 100.098,195.059 99.219,194.951 99.219 C 194.844 99.219,195.622 100.098,196.680 101.172 M259.863 100.660 C 260.239 100.758,260.854 100.758,261.230 100.660 C 261.606 100.562,261.299 100.481,260.547 100.481 C 259.795 100.481,259.487 100.562,259.863 100.660 M207.122 102.734 C 207.122 103.486,207.202 103.794,207.301 103.418 C 207.399 103.042,207.399 102.427,207.301 102.051 C 207.202 101.675,207.122 101.982,207.122 102.734 M162.305 103.516 C 162.019 103.978,162.401 103.978,163.477 103.516 C 164.230 103.192,164.227 103.179,163.402 103.152 C 162.931 103.137,162.437 103.301,162.305 103.516 M285.938 110.669 C 285.938 110.736,286.509 111.308,287.207 111.939 L 288.477 113.086 287.329 111.816 C 286.260 110.633,285.938 110.367,285.938 110.669 M143.905 113.173 C 143.286 113.984,142.211 115.703,141.516 116.992 C 140.821 118.281,140.248 119.208,140.243 119.051 C 140.220 118.289,141.669 115.319,142.487 114.453 C 142.995 113.916,143.676 112.977,144.000 112.366 C 144.324 111.755,144.688 111.355,144.810 111.477 C 144.931 111.598,144.524 112.361,143.905 113.173 M214.844 115.222 C 196.551 117.563,183.506 133.072,184.461 151.344 C 184.742 156.715,185.374 156.893,185.654 151.679 C 186.023 144.809,189.231 136.365,193.490 131.055 C 201.093 121.576,214.016 115.416,224.856 116.101 C 227.765 116.285,227.851 116.268,226.456 115.782 C 224.548 115.118,218.093 114.807,214.844 115.222 M145.313 116.992 C 145.313 117.529,145.161 117.969,144.976 117.969 C 144.791 117.969,144.724 117.529,144.826 116.992 C 144.929 116.455,145.080 116.016,145.163 116.016 C 145.245 116.016,145.313 116.455,145.313 116.992 M141.797 119.554 C 141.797 119.997,141.621 120.250,141.406 120.117 C 141.191 119.984,141.016 119.622,141.016 119.313 C 141.016 119.003,141.191 118.750,141.406 118.750 C 141.621 118.750,141.797 119.112,141.797 119.554 M121.094 119.534 C 102.102 121.932,87.721 142.925,93.040 160.488 L 93.555 162.186 93.557 158.925 C 93.560 155.479,94.417 149.726,94.979 149.379 C 95.163 149.265,95.313 148.775,95.313 148.289 C 95.312 147.208,96.497 143.632,96.766 143.901 C 96.872 144.007,96.731 144.985,96.452 146.074 C 96.059 147.606,96.050 148.159,96.410 148.519 C 96.770 148.879,96.875 148.618,96.875 147.367 C 96.875 146.477,97.051 145.641,97.266 145.508 C 97.495 145.366,97.662 145.799,97.669 146.559 L 97.682 147.852 98.459 146.919 C 99.329 145.874,100.982 146.677,100.508 147.915 C 100.158 148.825,101.201 150.391,102.157 150.391 C 103.455 150.391,105.574 148.769,105.906 147.521 C 106.768 144.285,103.560 143.238,101.271 146.008 C 100.434 147.023,100.394 147.032,100.393 146.218 C 100.391 145.697,100.706 145.265,101.200 145.108 C 101.943 144.872,101.959 144.795,101.396 144.172 C 100.681 143.382,100.612 142.969,101.195 142.969 C 101.422 142.969,101.511 143.126,101.392 143.318 C 101.274 143.511,101.448 143.772,101.780 143.900 C 102.160 144.045,102.286 143.972,102.119 143.702 C 101.973 143.465,102.060 143.144,102.313 142.988 C 102.829 142.669,102.856 142.150,102.517 139.063 C 102.335 137.398,102.425 136.738,102.919 136.133 C 103.540 135.371,103.548 135.376,103.245 136.328 C 102.970 137.192,102.948 138.386,103.145 141.759 C 103.178 142.318,103.314 142.513,103.482 142.243 C 103.693 141.900,104.076 141.897,105.029 142.229 C 108.716 143.514,116.135 139.445,118.522 134.830 C 119.249 133.423,119.346 129.659,118.672 128.984 C 118.307 128.620,118.391 128.516,119.050 128.516 C 119.670 128.516,119.832 128.685,119.655 129.147 C 119.465 129.642,119.586 129.723,120.219 129.522 C 121.188 129.214,121.688 130.805,121.355 133.136 C 121.242 133.925,121.238 134.261,121.347 133.882 C 121.455 133.503,121.683 133.280,121.854 133.385 C 122.024 133.491,122.189 132.746,122.220 131.730 C 122.308 128.826,122.469 128.356,123.473 128.075 C 124.395 127.818,124.396 127.811,123.535 127.773 C 122.428 127.724,122.181 125.000,123.284 125.000 C 123.681 125.000,123.829 125.215,123.687 125.586 C 123.403 126.325,123.719 126.336,124.442 125.614 C 125.171 124.885,125.151 124.576,124.395 124.866 C 123.728 125.122,125.153 121.952,125.955 121.393 C 126.680 120.888,127.439 121.062,127.202 121.680 C 127.079 122.002,127.135 122.266,127.327 122.266 C 127.520 122.266,127.757 121.958,127.856 121.582 C 127.961 121.180,128.064 121.381,128.106 122.070 C 128.172 123.158,128.216 123.116,128.720 121.500 C 129.019 120.542,129.227 119.726,129.182 119.688 C 128.831 119.386,123.128 119.278,121.094 119.534 M150.781 120.313 C 151.207 120.588,151.227 120.693,150.856 120.697 C 150.575 120.700,150.467 120.902,150.617 121.144 C 150.774 121.398,150.688 121.518,150.416 121.428 C 150.155 121.341,149.970 121.118,150.004 120.932 C 150.039 120.747,149.832 120.446,149.545 120.264 C 149.126 119.999,149.139 119.934,149.609 119.934 C 149.932 119.934,150.459 120.104,150.781 120.313 M153.711 120.313 C 153.578 120.527,153.831 120.703,154.274 120.703 C 154.716 120.703,155.078 120.527,155.078 120.313 C 155.078 120.098,154.825 119.922,154.515 119.922 C 154.206 119.922,153.844 120.098,153.711 120.313 M148.047 121.437 C 148.047 121.580,147.441 122.024,146.700 122.423 C 145.930 122.838,145.187 123.627,144.963 124.269 C 144.428 125.805,144.286 125.680,144.313 123.698 C 144.334 122.150,144.416 122.014,145.271 122.107 C 146.240 122.213,147.427 121.385,146.966 120.924 C 146.822 120.780,147.006 120.778,147.375 120.920 C 147.745 121.061,148.047 121.294,148.047 121.437 M124.609 122.475 C 124.609 122.590,124.325 123.117,123.979 123.647 C 123.278 124.716,122.656 124.907,122.656 124.052 C 122.656 123.746,122.349 123.414,121.973 123.316 C 121.552 123.206,121.702 123.120,122.363 123.092 C 122.954 123.067,123.438 122.871,123.438 122.656 C 123.438 122.441,123.701 122.266,124.023 122.266 C 124.346 122.266,124.609 122.360,124.609 122.475 M206.970 123.177 C 200.213 125.704,195.579 132.715,197.812 137.033 C 201.259 143.698,218.050 132.933,215.632 125.608 C 214.766 122.982,210.610 121.816,206.970 123.177 M117.969 123.438 C 117.969 123.652,117.573 123.825,117.090 123.822 C 116.379 123.817,116.323 123.744,116.797 123.438 C 117.554 122.948,117.969 122.948,117.969 123.438 M125.553 124.378 C 125.725 125.295,125.648 125.761,125.304 125.877 C 124.900 126.013,124.902 126.163,125.312 126.660 C 125.653 127.073,125.685 127.357,125.410 127.527 C 125.184 127.667,125.000 127.956,125.000 128.171 C 125.000 128.386,125.161 128.462,125.357 128.341 C 125.554 128.219,125.790 128.341,125.883 128.611 C 125.976 128.881,126.086 127.739,126.127 126.074 C 126.178 124.011,126.058 123.047,125.753 123.047 C 125.453 123.047,125.387 123.491,125.553 124.378 M126.563 124.023 C 126.563 124.561,126.738 125.000,126.953 125.000 C 127.168 125.000,127.344 124.561,127.344 124.023 C 127.344 123.486,127.168 123.047,126.953 123.047 C 126.738 123.047,126.563 123.486,126.563 124.023 M127.825 125.000 C 127.825 125.752,127.905 126.060,128.004 125.684 C 128.102 125.308,128.102 124.692,128.004 124.316 C 127.905 123.940,127.825 124.248,127.825 125.000 M137.924 125.822 C 137.580 126.682,137.548 126.692,137.525 125.944 C 137.511 125.496,137.617 125.013,137.760 124.870 C 138.227 124.403,138.306 124.866,137.924 125.822 M116.001 125.586 C 116.040 124.818,116.050 124.817,116.610 125.557 C 116.923 125.971,117.111 126.378,117.028 126.462 C 116.753 126.737,114.063 126.092,114.063 125.750 C 114.063 125.566,114.326 125.516,114.648 125.640 C 114.987 125.770,115.246 125.641,115.262 125.335 C 115.277 125.043,115.440 125.156,115.625 125.586 L 115.961 126.367 116.001 125.586 M113.281 125.787 C 113.756 126.099,113.769 126.235,113.353 126.504 C 113.032 126.711,113.906 126.925,115.684 127.074 C 117.708 127.244,118.614 127.176,118.828 126.840 C 119.057 126.481,119.130 126.479,119.135 126.832 C 119.145 127.663,118.214 127.907,115.507 127.784 C 112.517 127.647,109.913 128.635,107.436 130.847 C 105.976 132.150,105.614 132.272,105.371 131.544 C 105.274 131.251,105.009 131.430,104.708 131.994 C 104.269 132.813,104.285 132.901,104.832 132.691 C 105.365 132.486,105.387 132.564,104.978 133.218 C 104.715 133.639,104.366 133.984,104.203 133.984 C 104.040 133.984,103.906 134.248,103.906 134.570 C 103.906 134.893,103.736 135.156,103.528 135.156 C 103.320 135.156,103.265 134.849,103.406 134.473 C 103.630 133.874,103.580 133.856,103.003 134.325 C 101.580 135.483,102.353 133.762,104.121 131.836 C 105.588 130.239,105.970 130.001,106.306 130.477 C 106.644 130.955,106.676 130.937,106.494 130.369 C 106.333 129.871,106.723 129.391,107.922 128.615 C 108.828 128.027,109.658 127.451,109.766 127.334 C 111.049 125.937,112.522 125.289,113.281 125.787 M110.417 127.524 C 108.643 128.577,107.451 129.688,108.096 129.688 C 108.345 129.688,108.657 129.511,108.790 129.296 C 108.923 129.080,109.812 128.549,110.766 128.114 C 111.720 127.680,112.500 127.153,112.500 126.943 C 112.500 126.406,112.125 126.511,110.417 127.524 M127.488 130.469 C 127.488 132.725,127.553 133.647,127.632 132.520 C 127.711 131.392,127.711 129.546,127.632 128.418 C 127.553 127.290,127.488 128.213,127.488 130.469 M120.508 131.873 C 120.508 132.390,120.640 132.813,120.801 132.813 C 120.962 132.813,121.094 132.471,121.094 132.054 C 121.094 131.637,120.962 131.215,120.801 131.115 C 120.640 131.015,120.508 131.357,120.508 131.873 M137.600 136.128 C 137.361 137.199,137.223 138.134,137.293 138.205 C 137.551 138.463,138.336 135.534,138.188 134.866 C 138.104 134.489,137.840 135.056,137.600 136.128 M289.453 135.538 C 289.453 135.708,289.805 135.938,290.234 136.051 C 290.664 136.163,291.016 136.116,291.016 135.946 C 291.016 135.777,290.664 135.546,290.234 135.434 C 289.805 135.321,289.453 135.368,289.453 135.538 M101.667 136.770 C 101.905 136.926,101.888 137.285,101.620 137.746 C 101.217 138.440,101.195 138.441,101.184 137.767 C 101.175 137.227,100.977 137.119,100.357 137.315 C 99.556 137.569,99.554 137.556,100.242 136.507 C 100.723 135.773,100.995 135.609,101.115 135.982 C 101.211 136.280,101.459 136.634,101.667 136.770 M98.851 139.897 C 98.410 140.620,98.049 141.508,98.048 141.871 C 98.047 142.528,97.370 143.203,97.042 142.875 C 96.947 142.781,97.328 141.840,97.888 140.785 C 99.231 138.256,99.268 138.200,99.474 138.407 C 99.572 138.504,99.291 139.175,98.851 139.897 M101.335 140.592 C 101.093 140.834,100.908 140.541,100.618 139.453 L 100.358 138.477 100.928 139.453 C 101.242 139.989,101.425 140.502,101.335 140.592 M196.555 141.293 C 193.285 142.876,192.489 147.395,195.306 148.377 C 197.541 149.156,200.781 146.304,200.781 143.557 C 200.781 141.417,198.653 140.277,196.555 141.293 M110.547 142.188 C 109.365 142.589,107.607 142.957,106.641 143.005 C 105.149 143.080,105.076 143.118,106.160 143.252 C 106.862 143.339,107.335 143.574,107.211 143.775 C 107.087 143.976,107.270 144.141,107.617 144.141 C 107.965 144.141,108.141 143.965,108.008 143.750 C 107.875 143.535,107.996 143.346,108.278 143.329 C 108.559 143.313,109.096 143.218,109.470 143.118 C 109.845 143.018,110.668 142.838,111.299 142.717 C 111.931 142.596,112.542 142.252,112.657 141.952 C 112.772 141.652,112.828 141.418,112.781 141.432 C 112.734 141.446,111.729 141.786,110.547 142.188 M105.859 149.382 C 105.859 149.686,105.640 150.024,105.371 150.132 C 105.003 150.280,105.000 150.337,105.357 150.360 C 105.618 150.377,106.020 150.039,106.250 149.609 C 106.533 149.080,106.538 148.828,106.264 148.828 C 106.041 148.828,105.859 149.077,105.859 149.382 M95.328 150.177 C 95.069 150.488,94.939 151.060,95.040 151.446 C 95.179 151.984,95.232 151.938,95.267 151.246 C 95.292 150.750,95.488 150.453,95.703 150.586 C 95.918 150.719,96.094 150.553,96.094 150.218 C 96.094 149.462,95.929 149.453,95.328 150.177 M159.199 150.612 C 140.647 154.296,127.665 175.620,133.412 192.969 L 133.994 194.727 133.696 193.164 C 131.042 179.249,140.636 162.463,155.078 155.752 C 161.172 152.921,166.082 151.758,171.945 151.758 C 177.254 151.758,177.482 151.519,173.062 150.589 C 169.632 149.868,162.893 149.879,159.199 150.612 M84.887 152.930 C 84.889 154.219,84.962 154.699,85.049 153.997 C 85.136 153.295,85.134 152.240,85.045 151.653 C 84.956 151.066,84.884 151.641,84.887 152.930 M153.615 159.555 C 147.017 161.616,141.960 168.943,143.912 173.614 C 144.964 176.132,148.375 176.668,152.014 174.888 C 154.170 173.833,154.897 173.305,157.359 171.009 C 158.429 170.011,158.734 169.892,159.056 170.346 C 159.370 170.787,159.405 170.763,159.232 170.224 C 159.113 169.854,159.536 168.561,160.172 167.353 C 163.232 161.535,159.912 157.588,153.615 159.555 M148.047 160.872 C 148.047 161.123,147.803 161.328,147.504 161.328 C 146.772 161.328,145.050 162.756,145.381 163.088 C 145.849 163.558,147.336 162.855,147.111 162.269 C 146.991 161.956,147.137 161.719,147.450 161.719 C 148.077 161.719,148.634 161.004,148.281 160.651 C 148.152 160.522,148.047 160.622,148.047 160.872 M142.084 166.241 C 141.141 167.491,141.238 167.765,142.279 166.795 C 142.760 166.348,143.214 166.165,143.289 166.389 C 143.444 166.856,144.141 166.947,144.141 166.500 C 144.141 165.559,142.732 165.382,142.084 166.241 M140.452 168.837 C 139.785 169.789,139.628 170.882,140.210 170.523 C 140.412 170.398,140.767 170.607,141.000 170.988 C 141.328 171.525,141.365 171.339,141.165 170.158 C 140.982 169.076,141.035 168.716,141.348 168.909 C 141.630 169.083,141.704 168.963,141.555 168.575 C 141.253 167.786,141.175 167.805,140.452 168.837 M136.719 176.000 C 136.719 176.549,136.878 176.901,137.073 176.780 C 137.267 176.660,137.335 176.210,137.222 175.781 C 136.941 174.706,136.719 174.803,136.719 176.000 M145.313 176.563 C 146.648 176.990,147.675 176.990,146.680 176.563 C 146.250 176.378,145.547 176.232,145.117 176.238 C 144.489 176.247,144.527 176.311,145.313 176.563 M142.574 178.613 C 140.519 181.983,143.050 184.744,145.733 182.061 C 147.750 180.044,147.259 177.344,144.874 177.344 C 143.571 177.344,143.235 177.530,142.574 178.613 M115.625 180.091 C 104.008 183.071,94.497 193.373,91.938 205.747 C 91.164 209.489,91.388 217.597,92.340 220.313 C 92.679 221.279,92.884 221.631,92.795 221.094 C 92.184 217.392,92.151 216.253,92.599 214.376 C 93.870 209.052,95.032 204.779,95.501 203.711 C 97.652 198.813,98.588 196.875,98.802 196.875 C 98.938 196.875,99.349 196.369,99.715 195.750 C 100.080 195.131,101.173 193.785,102.143 192.758 C 103.113 191.731,103.906 190.772,103.906 190.626 C 103.906 190.140,105.818 189.460,106.064 189.858 C 106.192 190.065,106.028 190.234,105.699 190.234 C 105.332 190.234,105.188 190.457,105.325 190.815 C 105.522 191.328,105.644 191.328,106.377 190.815 C 107.997 189.680,107.767 190.260,105.948 191.895 C 104.933 192.808,103.794 193.889,103.418 194.298 C 103.006 194.746,102.734 194.847,102.734 194.552 C 102.734 194.283,103.218 193.596,103.809 193.024 C 104.787 192.078,105.358 191.016,104.890 191.016 C 104.499 191.016,101.994 193.664,102.165 193.897 C 102.263 194.031,102.241 194.067,102.116 193.978 C 101.567 193.586,100.490 195.268,100.674 196.229 C 100.888 197.347,101.660 196.939,102.092 195.480 C 102.226 195.027,102.256 195.116,102.166 195.703 C 102.084 196.240,101.746 197.383,101.416 198.242 C 98.246 206.491,106.047 208.465,113.513 201.304 C 120.118 194.969,118.169 186.239,110.777 189.049 C 110.161 189.283,109.577 189.394,109.478 189.296 C 109.380 189.197,110.063 188.898,110.997 188.631 C 113.098 188.029,113.687 187.604,113.412 186.886 C 113.254 186.475,113.524 186.328,114.433 186.328 L 115.669 186.328 114.747 187.207 C 114.241 187.690,113.907 188.044,114.006 187.992 C 114.105 187.940,114.422 188.093,114.710 188.332 C 115.096 188.652,115.234 188.652,115.234 188.329 C 115.234 188.088,115.015 187.889,114.746 187.888 C 114.478 187.887,114.748 187.562,115.347 187.167 C 116.300 186.539,116.362 186.387,115.840 185.954 C 115.512 185.681,115.346 185.291,115.473 185.087 C 115.605 184.873,115.980 184.966,116.356 185.306 C 117.073 185.955,118.257 185.547,117.800 184.809 C 117.653 184.570,117.747 184.375,118.011 184.375 C 118.274 184.375,118.399 184.284,118.288 184.173 C 117.880 183.765,113.813 184.957,111.995 186.018 C 109.983 187.190,109.766 187.268,109.766 186.816 C 109.766 186.004,117.333 183.079,122.070 182.060 C 125.452 181.332,125.391 181.365,125.391 180.286 C 125.391 178.993,120.301 178.892,115.625 180.091 M95.493 184.082 L 93.555 186.133 95.605 184.194 C 96.733 183.128,97.656 182.205,97.656 182.144 C 97.656 181.852,97.294 182.176,95.493 184.082 M124.741 185.156 C 124.741 186.768,124.810 187.427,124.894 186.621 C 124.978 185.815,124.978 184.497,124.894 183.691 C 124.810 182.886,124.741 183.545,124.741 185.156 M119.922 183.203 C 119.472 183.494,119.609 183.582,120.508 183.582 C 121.152 183.582,121.943 183.411,122.266 183.203 C 122.715 182.913,122.579 182.824,121.680 182.824 C 121.035 182.824,120.244 182.995,119.922 183.203 M116.309 187.379 C 115.933 187.477,115.625 187.835,115.625 188.175 C 115.625 188.717,115.717 188.710,116.375 188.114 C 117.092 187.466,117.146 187.474,117.589 188.302 C 117.958 188.991,118.123 189.057,118.395 188.627 C 118.907 187.820,118.821 187.497,118.164 187.749 C 117.842 187.873,117.578 187.780,117.578 187.542 C 117.578 187.094,117.457 187.078,116.309 187.379 M308.984 196.680 C 308.036 197.646,307.347 198.438,307.455 198.438 C 307.562 198.438,308.426 197.646,309.375 196.680 C 310.324 195.713,311.012 194.922,310.905 194.922 C 310.797 194.922,309.933 195.713,308.984 196.680 M99.804 196.973 C 99.651 197.563,99.373 198.047,99.189 198.047 C 99.004 198.047,98.956 198.316,99.082 198.644 C 99.280 199.161,99.382 199.147,99.831 198.547 C 100.305 197.914,100.336 197.939,100.172 198.828 L 99.991 199.805 100.397 198.795 C 100.656 198.153,100.672 197.441,100.444 196.842 L 100.084 195.898 99.804 196.973 M100.781 205.394 C 100.781 206.002,102.246 206.727,103.048 206.515 C 103.603 206.369,103.588 206.333,102.960 206.295 C 102.548 206.270,101.888 205.959,101.496 205.604 C 101.093 205.239,100.781 205.148,100.781 205.394 M100.668 209.288 C 98.668 210.523,98.804 213.749,100.867 213.989 C 102.456 214.174,103.444 213.434,103.908 211.714 C 104.662 208.913,103.131 207.767,100.668 209.288 M84.123 212.695 C 84.122 214.629,84.188 215.469,84.270 214.563 C 84.352 213.656,84.353 212.074,84.272 211.047 C 84.191 210.020,84.124 210.762,84.123 212.695 M155.230 229.504 C 154.873 230.048,154.653 230.564,154.740 230.651 C 154.826 230.738,155.194 230.293,155.556 229.662 C 156.362 228.258,156.122 228.142,155.230 229.504 M162.679 230.025 C 156.906 233.545,156.342 242.969,161.904 242.969 C 166.820 242.969,171.294 236.072,169.369 231.464 C 168.430 229.216,165.159 228.512,162.679 230.025 M159.052 246.998 C 157.853 248.274,157.904 250.271,159.151 250.839 C 160.664 251.529,162.080 250.947,162.742 249.363 C 163.876 246.648,161.071 244.849,159.052 246.998 M298.230 253.613 L 295.898 256.055 298.340 253.723 C 299.683 252.441,300.781 251.342,300.781 251.282 C 300.781 250.993,300.396 251.345,298.230 253.613 M108.684 265.625 C 108.684 266.377,108.765 266.685,108.863 266.309 C 108.961 265.933,108.961 265.317,108.863 264.941 C 108.765 264.565,108.684 264.873,108.684 265.625 M108.684 270.313 C 108.684 271.064,108.765 271.372,108.863 270.996 C 108.961 270.620,108.961 270.005,108.863 269.629 C 108.765 269.253,108.684 269.561,108.684 270.313 M167.383 293.755 C 163.802 295.555,161.562 302.182,163.552 305.089 C 166.587 309.524,173.047 304.527,173.047 297.745 C 173.047 293.615,170.804 292.035,167.383 293.755 M265.014 299.707 L 263.867 300.977 265.137 299.829 C 265.835 299.198,266.406 298.627,266.406 298.560 C 266.406 298.258,266.084 298.524,265.014 299.707 M141.895 303.795 C 142.485 303.885,143.452 303.885,144.043 303.795 C 144.634 303.706,144.150 303.633,142.969 303.633 C 141.787 303.633,141.304 303.706,141.895 303.795 M147.768 310.352 C 147.771 311.426,147.847 311.819,147.937 311.225 C 148.026 310.631,148.024 309.752,147.931 309.272 C 147.839 308.792,147.765 309.277,147.768 310.352 M227.434 310.547 C 227.434 311.299,227.515 311.606,227.613 311.230 C 227.711 310.854,227.711 310.239,227.613 309.863 C 227.515 309.487,227.434 309.795,227.434 310.547 M237.598 310.834 C 238.618 310.914,240.288 310.914,241.309 310.834 C 242.329 310.754,241.494 310.688,239.453 310.688 C 237.412 310.688,236.577 310.754,237.598 310.834 " stroke="none" fill="#cc96cb" fill-rule="evenodd"></path><path id="path4" d="M214.258 59.630 C 210.186 60.233,206.934 61.292,207.181 61.935 C 211.440 73.035,213.979 88.540,213.542 100.781 C 213.355 105.993,213.402 107.033,213.785 106.215 C 214.045 105.659,214.453 105.270,214.693 105.351 C 215.180 105.516,215.614 103.418,215.621 100.869 C 215.624 99.426,215.765 99.146,216.656 98.808 C 217.223 98.592,217.577 98.306,217.443 98.172 C 217.309 98.038,217.505 97.695,217.877 97.409 C 218.418 96.995,218.451 96.821,218.040 96.550 C 217.651 96.293,217.618 95.887,217.907 94.883 C 218.246 93.703,218.297 93.664,218.364 94.531 C 218.427 95.353,218.490 95.291,218.761 94.141 C 218.937 93.389,218.985 92.287,218.866 91.692 C 218.696 90.846,218.775 90.659,219.229 90.833 C 219.702 91.015,219.743 91.413,219.451 93.018 C 219.255 94.097,219.160 95.275,219.239 95.635 C 219.319 95.995,219.636 94.707,219.943 92.773 C 220.442 89.634,220.524 89.425,220.711 90.820 C 221.087 93.628,222.027 82.735,222.009 75.781 C 221.991 69.201,221.408 62.736,220.664 60.877 C 220.301 59.972,219.693 59.564,218.164 59.202 C 217.949 59.151,216.191 59.344,214.258 59.630 M207.556 95.117 C 207.557 96.836,207.626 97.490,207.708 96.572 C 207.791 95.653,207.790 94.247,207.706 93.447 C 207.622 92.647,207.554 93.398,207.556 95.117 M220.424 94.336 C 220.427 95.410,220.503 95.803,220.593 95.209 C 220.683 94.616,220.680 93.737,220.587 93.256 C 220.495 92.776,220.421 93.262,220.424 94.336 M215.124 99.121 C 215.034 99.712,214.961 99.229,214.961 98.047 C 214.961 96.865,215.034 96.382,215.124 96.973 C 215.213 97.563,215.213 98.530,215.124 99.121 " stroke="none" fill="#c3885c" fill-rule="evenodd"></path></g></svg>