<svg id="svg" version="1.1" xmlns="http://www.w3.org/2000/svg" xmlns:xlink="http://www.w3.org/1999/xlink" width="400" height="400" viewBox="0, 0, 400,400"><g id="svgg"><path id="path0" d="M122.873 50.875 C 116.858 57.081,88.974 143.061,47.079 284.583 C 44.430 293.532,43.846 295.568,43.913 295.635 C 44.200 295.923,52.406 298.625,57.333 300.054 C 113.016 316.209,176.043 316.146,225.917 299.886 C 259.781 288.846,295.415 263.637,327.653 227.913 C 332.867 222.136,342.833 210.116,342.833 209.606 C 342.833 209.407,299.201 176.044,273.500 156.590 C 187.035 91.143,135.030 54.046,125.025 50.675 C 123.679 50.222,123.490 50.239,122.873 50.875 M134.690 81.979 C 139.770 83.727,147.396 91.168,150.341 97.250 C 154.265 105.355,148.908 114.538,141.380 112.609 C 134.272 110.787,130.251 103.301,130.265 91.917 C 130.275 83.716,131.532 80.893,134.690 81.979 M179.250 113.852 C 186.164 116.142,194.950 123.285,196.802 128.121 C 200.897 138.811,191.887 146.109,182.694 139.550 C 177.576 135.897,173.839 126.922,173.792 118.167 C 173.766 113.242,174.842 112.392,179.250 113.852 M130.588 137.755 C 134.292 139.864,139.599 149.228,140.991 156.110 C 143.142 166.748,133.673 174.627,126.565 168.113 C 121.216 163.212,120.399 154.736,124.272 144.333 C 126.412 138.586,128.404 136.511,130.588 137.755 M231.894 162.512 C 238.978 164.883,247.635 171.994,249.514 176.986 C 252.238 184.223,248.168 191.441,241.750 190.754 C 233.330 189.854,227.112 180.547,226.395 167.773 C 226.083 162.212,227.357 160.993,231.894 162.512 M172.721 166.641 C 178.918 169.451,187.200 178.757,188.432 184.296 C 190.250 192.465,184.255 199.189,177.456 196.608 C 170.101 193.816,165.997 183.686,167.486 172.000 C 168.196 166.433,169.444 165.155,172.721 166.641 M277.250 191.503 C 282.410 193.344,288.586 197.667,292.140 201.925 C 298.525 209.575,295.411 220.153,286.932 219.617 C 279.096 219.121,273.068 210.790,271.657 198.508 C 270.853 191.511,272.276 189.729,277.250 191.503 M127.266 207.510 C 131.094 209.875,135.297 224.623,133.945 230.946 C 132.186 239.180,123.970 243.136,118.824 238.228 C 112.813 232.494,114.044 221.046,121.770 210.836 C 124.277 207.522,125.798 206.602,127.266 207.510 M231.516 227.506 C 236.157 229.336,243.439 237.321,246.068 243.464 C 249.726 252.011,243.477 261.199,235.928 258.374 C 228.760 255.691,225.028 246.231,226.572 234.661 C 227.414 228.354,228.752 226.417,231.516 227.506 M173.089 244.020 C 178.532 247.472,184.620 261.322,183.429 267.544 C 181.247 278.950,169.167 279.796,165.152 268.824 C 163.206 263.507,164.282 254.943,167.774 247.943 C 169.844 243.793,171.178 242.808,173.089 244.020 M110.138 259.282 C 113.738 261.754,118.371 270.023,119.929 276.757 C 122.482 287.797,112.843 296.188,105.459 289.352 C 99.750 284.066,99.500 272.842,104.862 262.492 C 106.856 258.642,108.102 257.884,110.138 259.282 " stroke="none" fill="#eb606d" fill-rule="evenodd"></path><path id="path1" d="M132.500 81.877 C 130.015 83.105,129.398 94.629,131.433 101.785 C 133.706 109.780,141.207 114.839,146.737 112.106 C 151.312 109.845,153.023 102.790,150.341 97.250 C 146.687 89.703,135.744 80.275,132.500 81.877 M175.417 113.278 C 172.497 114.057,173.638 125.603,177.375 133.083 C 183.345 145.036,197.620 145.094,197.698 133.167 C 197.725 129.018,196.423 126.224,192.763 122.575 C 187.380 117.208,178.506 112.452,175.417 113.278 M128.519 137.456 C 125.602 138.873,121.842 149.554,121.835 156.446 C 121.824 167.424,131.261 174.397,137.654 168.135 C 140.764 165.090,141.946 160.831,140.991 156.110 C 139.181 147.157,131.671 135.926,128.519 137.456 M227.787 162.019 C 225.214 163.012,226.296 173.741,229.724 181.214 C 235.424 193.639,250.353 193.978,250.330 181.682 C 250.322 177.215,248.473 173.814,243.857 169.781 C 238.114 164.763,230.370 161.022,227.787 162.019 M169.454 166.332 C 166.840 168.401,166.497 180.037,168.842 187.057 C 171.749 195.760,180.726 200.006,185.754 195.057 C 188.770 192.090,189.611 186.088,187.600 181.891 C 183.784 173.929,172.298 164.080,169.454 166.332 M272.569 191.217 C 269.954 193.418,272.300 206.738,276.384 212.875 C 281.560 220.654,291.296 222.044,294.427 215.452 C 296.475 211.139,295.623 206.098,292.140 201.925 C 286.710 195.419,275.115 189.075,272.569 191.217 M124.898 207.600 C 121.284 210.013,116.411 218.751,115.242 224.917 C 112.989 236.789,122.859 245.020,130.333 237.504 C 134.537 233.276,135.273 227.464,132.764 218.311 C 130.565 210.290,127.375 205.946,124.898 207.600 M350.972 221.206 C 338.583 235.863,320.298 254.170,304.833 267.402 C 276.603 291.557,248.859 308.142,223.819 315.832 C 207.691 320.785,190.165 324.224,172.430 325.917 C 155.248 327.557,134.914 327.555,116.417 325.912 C 90.751 323.632,62.075 317.553,41.016 309.929 C 40.080 309.590,40.323 308.982,38.834 315.402 C 38.122 318.475,37.491 321.179,37.433 321.410 C 37.139 322.582,56.543 331.064,69.833 335.575 C 89.802 342.352,108.982 346.413,131.667 348.668 C 174.755 352.952,221.602 344.215,258.167 325.076 C 295.360 305.609,335.919 267.805,361.783 228.500 L 362.650 227.183 358.145 222.800 C 355.667 220.389,353.586 218.397,353.522 218.373 C 353.457 218.349,352.310 219.624,350.972 221.206 M228.741 227.749 C 226.310 230.326,225.495 241.427,227.255 248.000 C 229.745 257.304,239.136 261.995,244.238 256.484 C 246.532 254.006,247.651 249.743,246.936 246.210 C 245.264 237.961,231.899 224.400,228.741 227.749 M170.409 244.029 C 165.689 248.173,162.720 262.177,165.152 268.824 C 169.167 279.796,181.247 278.950,183.429 267.544 C 185.003 259.321,174.531 240.410,170.409 244.029 M107.703 258.770 C 104.724 260.275,100.967 270.909,100.971 277.827 C 100.979 292.716,116.556 297.266,120.105 283.417 C 122.042 275.859,112.280 256.458,107.703 258.770 " stroke="none" fill="#3a6e43" fill-rule="evenodd"></path><path id="path2" d="M0.000 200.000 L 0.000 400.000 200.000 400.000 L 400.000 400.000 400.000 200.000 L 400.000 0.000 200.000 0.000 L 0.000 0.000 0.000 200.000 M126.278 51.121 C 133.527 54.267,160.554 72.640,192.667 96.251 C 193.813 97.094,197.750 99.984,201.417 102.675 C 205.083 105.365,209.396 108.539,211.000 109.728 C 212.604 110.917,216.504 113.807,219.667 116.150 C 248.330 137.388,307.725 182.382,340.250 207.497 C 348.608 213.951,362.215 225.894,362.630 227.141 C 362.777 227.581,355.016 238.506,349.765 245.250 C 321.752 281.229,288.456 309.882,255.167 326.657 C 216.053 346.367,168.553 353.724,120.667 347.490 C 117.409 347.066,113.150 346.424,110.667 345.982 C 109.612 345.795,108.373 345.579,107.913 345.502 C 93.066 343.034,72.206 337.016,56.333 330.621 C 50.181 328.143,38.850 322.904,37.610 321.965 C 37.284 321.718,38.921 314.098,40.914 306.583 C 41.745 303.451,42.351 301.139,43.164 298.000 C 43.461 296.854,44.025 294.829,44.419 293.500 C 44.812 292.171,45.861 288.608,46.750 285.583 C 47.638 282.558,48.991 277.983,49.755 275.417 C 50.519 272.850,52.394 266.550,53.922 261.417 C 57.279 250.133,66.225 220.380,69.103 210.924 C 73.545 196.333,79.288 177.591,81.413 170.750 C 81.840 169.375,82.527 167.162,82.939 165.833 C 85.370 157.997,86.863 153.211,88.191 149.000 C 89.015 146.387,90.066 143.050,90.526 141.583 C 94.304 129.548,99.589 113.224,103.909 100.250 C 114.224 69.271,120.142 53.773,122.742 50.937 C 123.488 50.123,124.045 50.152,126.278 51.121 " stroke="none" fill="#fbfbfb" fill-rule="evenodd"></path><path id="path3" d="M342.165 210.566 C 339.671 213.981,332.462 222.622,327.689 227.917 C 294.644 264.574,257.830 290.248,223.260 300.743 C 187.829 311.499,148.957 314.719,108.667 310.234 C 86.805 307.801,57.596 301.264,43.982 295.757 C 43.776 295.674,43.690 295.778,43.613 296.199 C 43.559 296.502,43.245 297.762,42.916 299.000 C 42.358 301.104,41.568 304.115,40.600 307.833 C 40.106 309.729,39.904 309.486,42.846 310.521 C 106.200 332.791,187.657 332.472,240.000 309.749 C 270.408 296.548,304.745 270.699,336.856 236.833 C 343.208 230.134,353.333 218.684,353.333 218.200 C 353.333 218.080,352.079 217.035,344.746 211.049 L 342.908 209.549 342.165 210.566 M360.167 224.719 C 360.167 224.748,360.410 224.991,360.708 225.260 L 361.250 225.750 360.760 225.208 C 360.304 224.703,360.167 224.590,360.167 224.719 M145.960 349.618 C 146.168 349.658,146.468 349.656,146.627 349.615 C 146.786 349.573,146.617 349.540,146.250 349.542 C 145.883 349.544,145.753 349.578,145.960 349.618 M160.794 349.618 C 161.001 349.658,161.301 349.656,161.460 349.615 C 161.620 349.573,161.450 349.540,161.083 349.542 C 160.717 349.544,160.586 349.578,160.794 349.618 " stroke="none" fill="#fbfbd3" fill-rule="evenodd"></path><path id="path4" d="M356.333 221.083 C 356.924 221.679,357.445 222.167,357.490 222.167 C 357.536 222.167,357.091 221.679,356.500 221.083 C 355.909 220.487,355.389 220.000,355.343 220.000 C 355.297 220.000,355.743 220.487,356.333 221.083 M361.826 226.375 C 362.517 227.111,362.667 227.243,362.667 227.118 C 362.667 227.091,362.310 226.735,361.875 226.326 L 361.083 225.583 361.826 226.375 M319.906 236.208 L 319.417 236.750 319.958 236.260 C 320.463 235.804,320.577 235.667,320.448 235.667 C 320.419 235.667,320.175 235.910,319.906 236.208 M334.333 239.417 C 333.928 239.829,333.635 240.167,333.681 240.167 C 333.726 240.167,334.095 239.829,334.500 239.417 C 334.905 239.004,335.199 238.667,335.153 238.667 C 335.107 238.667,334.738 239.004,334.333 239.417 M310.740 245.375 L 310.250 245.917 310.792 245.427 C 311.297 244.971,311.410 244.833,311.281 244.833 C 311.252 244.833,311.009 245.077,310.740 245.375 M322.328 251.458 L 321.417 252.417 322.375 251.506 C 322.902 251.005,323.333 250.573,323.333 250.547 C 323.333 250.424,323.174 250.568,322.328 251.458 M318.909 254.708 L 318.250 255.417 318.958 254.758 C 319.617 254.145,319.743 254.000,319.617 254.000 C 319.590 254.000,319.271 254.319,318.909 254.708 M329.073 269.375 L 328.583 269.917 329.125 269.427 C 329.630 268.971,329.743 268.833,329.615 268.833 C 329.586 268.833,329.342 269.077,329.073 269.375 M326.573 272.042 L 326.083 272.583 326.625 272.094 C 327.130 271.638,327.243 271.500,327.115 271.500 C 327.086 271.500,326.842 271.744,326.573 272.042 M316.500 282.083 C 316.095 282.496,315.801 282.833,315.847 282.833 C 315.893 282.833,316.262 282.496,316.667 282.083 C 317.072 281.671,317.365 281.333,317.319 281.333 C 317.274 281.333,316.905 281.671,316.500 282.083 M313.406 285.042 L 312.917 285.583 313.458 285.094 C 313.963 284.638,314.077 284.500,313.948 284.500 C 313.919 284.500,313.675 284.744,313.406 285.042 M127.958 326.784 C 128.165 326.824,128.502 326.824,128.708 326.784 C 128.915 326.745,128.746 326.712,128.333 326.712 C 127.921 326.712,127.752 326.745,127.958 326.784 M160.627 326.785 C 160.834 326.824,161.134 326.823,161.294 326.781 C 161.453 326.739,161.283 326.707,160.917 326.709 C 160.550 326.711,160.420 326.745,160.627 326.785 M136.711 327.120 C 136.964 327.158,137.339 327.157,137.544 327.117 C 137.749 327.078,137.542 327.046,137.083 327.048 C 136.625 327.049,136.457 327.081,136.711 327.120 M151.958 327.121 C 152.256 327.158,152.744 327.158,153.042 327.121 C 153.340 327.084,153.096 327.053,152.500 327.053 C 151.904 327.053,151.660 327.084,151.958 327.121 M164.211 349.453 C 164.464 349.491,164.839 349.490,165.044 349.451 C 165.249 349.411,165.042 349.380,164.583 349.381 C 164.125 349.382,163.957 349.415,164.211 349.453 M158.788 349.620 C 159.084 349.657,159.609 349.658,159.955 349.622 C 160.300 349.586,160.058 349.555,159.417 349.555 C 158.775 349.554,158.492 349.583,158.788 349.620 " stroke="none" fill="#c5b99a" fill-rule="evenodd"></path></g></svg>